<svg width="64" height="73" viewBox="0 0 64 73" fill="none" xmlns="http://www.w3.org/2000/svg">
<g clip-path="url(#clip0_4049_6467)">
<path fill-rule="evenodd" clip-rule="evenodd" d="M30.3107 48.2223C29.0685 48.8028 27.6675 48.9135 26.1368 48.3604C21.4019 46.6491 19.6858 42.7511 19.7009 38.2578C19.7232 31.6969 23.4916 23.8555 26.6614 20.039C26.8113 19.858 27.0794 19.8338 27.2593 19.9837C27.4402 20.1336 27.4654 20.4018 27.3155 20.5827C24.2387 24.2868 20.573 31.8938 20.551 38.2613C20.5373 42.387 22.0771 45.9892 26.4263 47.5603C27.7204 48.0289 28.9024 47.9315 29.9539 47.4434C29.6455 46.7513 29.3606 46.0596 29.1004 45.3694C28.3827 43.4641 27.4575 38.2405 28.1576 34.4853C28.6606 31.7917 29.9968 29.8551 32.6393 30.0904C34.1081 30.2215 35.1154 31.2043 35.6757 32.7032C36.4472 34.7634 36.3568 37.8407 35.5431 40.7439C34.866 43.1612 33.6915 45.454 32.1347 46.9448C31.7919 47.2718 31.432 47.5622 31.0545 47.8074C35.5145 57.3248 44.328 66.5132 53.7027 70.7403C53.916 70.8375 54.0121 71.0885 53.915 71.3028C53.8189 71.5172 53.5668 71.6122 53.3535 71.5162C43.8262 67.2194 34.8653 57.896 30.3107 48.2223ZM30.696 47.0208C30.4076 46.3698 30.1407 45.719 29.8962 45.0696C29.209 43.2436 28.3228 38.2395 28.9938 34.6416C29.4053 32.4335 30.3983 30.7443 32.5641 30.9371C33.7014 31.039 34.4448 31.8409 34.88 33.0009C35.3574 34.2775 35.4648 35.9729 35.2643 37.7609C34.96 40.4754 33.9427 43.4026 32.3639 45.4209C31.8641 46.0605 31.3065 46.6074 30.696 47.0208Z" fill="#2B2B2B"/>
<path fill-rule="evenodd" clip-rule="evenodd" d="M46.9805 56.3786C47.5246 61.4216 50.4556 66.9376 53.7421 70.8355C53.8932 71.0147 53.8701 71.2831 53.6909 71.4343C53.5116 71.5854 53.2432 71.5633 53.092 71.3841C49.7024 67.3648 46.6965 61.6689 46.1353 56.4701C46.11 56.2374 46.2789 56.0276 46.5127 56.0024C46.7454 55.9771 46.9552 56.146 46.9805 56.3786Z" fill="#2B2B2B"/>
<path fill-rule="evenodd" clip-rule="evenodd" d="M53.0317 71.4702C49.5018 69.1524 43.9058 68.5141 39.7474 69.3185C39.5167 69.3633 39.2928 69.2128 39.2491 68.9822C39.2044 68.7515 39.3547 68.5287 39.5854 68.484C43.9418 67.6413 49.8001 68.3315 53.4983 70.7597C53.6946 70.888 53.7491 71.1526 53.6208 71.3489C53.4914 71.5451 53.2279 71.5996 53.0317 71.4702Z" fill="black"/>
</g>
<path d="M6.352 16.16C5.552 16.16 4.81067 16.016 4.128 15.728C3.44533 15.4293 2.848 15.0187 2.336 14.496C1.83467 13.9733 1.44533 13.3653 1.168 12.672C0.890667 11.9787 0.752 11.2373 0.752 10.448C0.752 9.648 0.890667 8.90133 1.168 8.208C1.44533 7.51467 1.83467 6.912 2.336 6.4C2.848 5.87733 3.44 5.472 4.112 5.184C4.79467 4.88533 5.536 4.736 6.336 4.736C7.21067 4.736 7.97867 4.88533 8.64 5.184C9.30133 5.48267 9.888 5.888 10.4 6.4L9.36 7.44C9.008 7.04533 8.576 6.736 8.064 6.512C7.56267 6.288 6.98667 6.176 6.336 6.176C5.74933 6.176 5.21067 6.28267 4.72 6.496C4.22933 6.69867 3.80267 6.992 3.44 7.376C3.07733 7.76 2.79467 8.21333 2.592 8.736C2.4 9.25867 2.304 9.82933 2.304 10.448C2.304 11.0667 2.4 11.6373 2.592 12.16C2.79467 12.6827 3.07733 13.136 3.44 13.52C3.80267 13.904 4.22933 14.2027 4.72 14.416C5.21067 14.6187 5.74933 14.72 6.336 14.72C7.02933 14.72 7.632 14.608 8.144 14.384C8.656 14.1493 9.088 13.8347 9.44 13.44L10.48 14.464C9.968 14.9973 9.36533 15.4133 8.672 15.712C7.98933 16.0107 7.216 16.16 6.352 16.16ZM12.0716 16V4.576H13.5116V16H12.0716ZM15.6345 16V8.4H17.0745V16H15.6345ZM16.3545 6.88C16.0878 6.88 15.8692 6.79467 15.6985 6.624C15.5278 6.44267 15.4425 6.21867 15.4425 5.952C15.4425 5.696 15.5278 5.48267 15.6985 5.312C15.8692 5.13067 16.0878 5.04 16.3545 5.04C16.6212 5.04 16.8398 5.13067 17.0105 5.312C17.1812 5.48267 17.2665 5.696 17.2665 5.952C17.2665 6.21867 17.1812 6.44267 17.0105 6.624C16.8398 6.79467 16.6212 6.88 16.3545 6.88ZM22.6686 16.16C21.922 16.16 21.2446 15.984 20.6366 15.632C20.0393 15.28 19.5646 14.8053 19.2126 14.208C18.8713 13.6 18.7006 12.928 18.7006 12.192C18.7006 11.4453 18.8713 10.7733 19.2126 10.176C19.5646 9.57867 20.0393 9.10933 20.6366 8.768C21.2446 8.416 21.922 8.24 22.6686 8.24C23.2553 8.24 23.7993 8.352 24.3006 8.576C24.802 8.78933 25.234 9.104 25.5966 9.52L24.6366 10.48C24.402 10.2027 24.114 9.99467 23.7726 9.856C23.442 9.70667 23.074 9.632 22.6686 9.632C22.1886 9.632 21.762 9.744 21.3886 9.968C21.0153 10.1813 20.722 10.48 20.5086 10.864C20.2953 11.248 20.1886 11.6907 20.1886 12.192C20.1886 12.6933 20.2953 13.136 20.5086 13.52C20.722 13.904 21.0153 14.208 21.3886 14.432C21.762 14.656 22.1886 14.768 22.6686 14.768C23.074 14.768 23.442 14.6987 23.7726 14.56C24.114 14.4107 24.4073 14.1973 24.6526 13.92L25.5966 14.88C25.2446 15.2853 24.8126 15.6 24.3006 15.824C23.7993 16.048 23.2553 16.16 22.6686 16.16ZM31.8888 16L28.3368 12.112L31.8568 8.4H33.6008L29.6808 12.496L29.7448 11.664L33.7448 16H31.8888ZM27.0247 16V4.576H28.4648V16H27.0247ZM38.3216 16V8.4H39.7616V16H38.3216ZM43.4576 16V11.408C43.4576 10.8427 43.2816 10.4 42.9296 10.08C42.5883 9.74933 42.1563 9.584 41.6336 9.584C41.2816 9.584 40.967 9.65867 40.6896 9.808C40.4123 9.95733 40.1883 10.1653 40.0176 10.432C39.847 10.6987 39.7616 11.0187 39.7616 11.392L39.1696 11.104C39.1696 10.528 39.2923 10.0267 39.5376 9.6C39.7936 9.17333 40.1403 8.84267 40.5776 8.608C41.015 8.36267 41.5056 8.24 42.0496 8.24C42.583 8.24 43.063 8.35733 43.4896 8.592C43.927 8.82667 44.2683 9.15733 44.5136 9.584C44.7696 10.0107 44.8976 10.5173 44.8976 11.104V16H43.4576ZM48.5936 16V11.408C48.5936 10.8427 48.4176 10.4 48.0656 10.08C47.7243 9.74933 47.2976 9.584 46.7856 9.584C46.4336 9.584 46.1136 9.65867 45.8256 9.808C45.5483 9.95733 45.3243 10.1653 45.1536 10.432C44.983 10.6987 44.8976 11.0187 44.8976 11.392L44.0816 11.104C44.1136 10.5173 44.2683 10.016 44.5456 9.6C44.8336 9.17333 45.2016 8.84267 45.6496 8.608C46.0976 8.36267 46.5883 8.24 47.1216 8.24C47.6763 8.24 48.1723 8.35733 48.6096 8.592C49.047 8.82667 49.3936 9.15733 49.6496 9.584C49.9163 10.0107 50.0496 10.5227 50.0496 11.12V16H48.5936ZM55.5291 16.16C54.7718 16.16 54.0891 15.9893 53.4811 15.648C52.8731 15.296 52.3931 14.8213 52.0411 14.224C51.6891 13.6267 51.5131 12.9493 51.5131 12.192C51.5131 11.4453 51.6838 10.7733 52.0251 10.176C52.3771 9.57867 52.8465 9.10933 53.4331 8.768C54.0305 8.416 54.6971 8.24 55.4331 8.24C56.1371 8.24 56.7558 8.4 57.2891 8.72C57.8331 9.04 58.2545 9.48267 58.5531 10.048C58.8625 10.6133 59.0171 11.2533 59.0171 11.968C59.0171 12.0747 59.0118 12.192 59.0011 12.32C58.9905 12.4373 58.9691 12.576 58.9371 12.736H52.5211V11.536H58.1691L57.6411 12C57.6411 11.488 57.5505 11.056 57.3691 10.704C57.1878 10.3413 56.9318 10.064 56.6011 9.872C56.2705 9.66933 55.8705 9.568 55.4011 9.568C54.9105 9.568 54.4785 9.67467 54.1051 9.888C53.7318 10.1013 53.4438 10.4 53.2411 10.784C53.0385 11.168 52.9371 11.6213 52.9371 12.144C52.9371 12.6773 53.0438 13.1467 53.2571 13.552C53.4705 13.9467 53.7745 14.256 54.1691 14.48C54.5638 14.6933 55.0171 14.8 55.5291 14.8C55.9558 14.8 56.3451 14.7253 56.6971 14.576C57.0598 14.4267 57.3691 14.2027 57.6251 13.904L58.5531 14.848C58.1905 15.2747 57.7425 15.6 57.2091 15.824C56.6865 16.048 56.1265 16.16 55.5291 16.16ZM61.0193 12.48L60.8113 4.576H62.3473L62.1393 12.48H61.0193ZM61.5633 16.16C61.2646 16.16 61.0193 16.0587 60.8273 15.856C60.6353 15.6533 60.5393 15.4027 60.5393 15.104C60.5393 14.8053 60.6353 14.56 60.8273 14.368C61.0193 14.1653 61.2646 14.064 61.5633 14.064C61.8726 14.064 62.1233 14.1653 62.3153 14.368C62.5073 14.56 62.6033 14.8053 62.6033 15.104C62.6033 15.4027 62.5073 15.6533 62.3153 15.856C62.1233 16.0587 61.8726 16.16 61.5633 16.16Z" fill="#2B2B2B"/>
<defs>
<clipPath id="clip0_4049_6467">
<rect width="50" height="50" fill="white" transform="matrix(0.998071 0.0620871 0.0620871 -0.998071 10.9385 68.9082)"/>
</clipPath>
</defs>
</svg>
