<svg width="91" height="90" viewBox="0 0 91 90" fill="none" xmlns="http://www.w3.org/2000/svg">
<path d="M75.6164 26.2295L59.0175 36.7575C56.8614 33.3581 53.4088 30.7809 49.1713 29.8326L53.4639 10.6519C62.9983 12.7857 70.7671 18.5817 75.6164 26.2295Z" fill="url(#paint0_linear_4021_1713)"/>
<path d="M37.3127 31.8999C33.9133 34.056 31.3362 37.5086 30.3878 41.7461L11.2071 37.4535C13.3409 27.9191 19.1369 20.1503 26.7847 15.301L37.3127 31.8999Z" fill="url(#paint1_linear_4021_1713)"/>
<path d="M53.4637 10.652L49.1711 29.8327C44.9336 28.8843 40.7119 29.7439 37.3125 31.9L26.7845 15.3011C34.4311 10.4499 43.9293 8.51819 53.4637 10.652Z" fill="url(#paint2_linear_4021_1713)"/>
<path d="M80.2658 52.9087L61.0851 48.6161C62.0335 44.3785 61.1738 40.1568 59.0177 36.7574L75.6167 26.2295C80.4679 33.876 82.3996 43.3742 80.2658 52.9087Z" fill="url(#paint3_linear_4021_1713)"/>
<path d="M80.2657 52.9087C78.1319 62.4431 72.3359 70.2119 64.6881 75.0612L54.1601 58.4623C57.5595 56.3062 60.1366 52.8536 61.085 48.6161L80.2657 52.9087Z" fill="url(#paint4_linear_4021_1713)"/>
<path d="M32.4551 53.6048L15.8561 64.1328C11.0049 56.4862 9.07324 46.988 11.207 37.4535L30.3877 41.7461C29.4393 45.9837 30.299 50.2054 32.4551 53.6048Z" fill="url(#paint5_linear_4021_1713)"/>
<path d="M64.688 75.0614C57.0414 79.9126 47.5432 81.8443 38.0088 79.7105L42.3014 60.5298C46.5389 61.4781 50.7606 60.6185 54.16 58.4624L64.688 75.0614Z" fill="url(#paint6_linear_4021_1713)"/>
<path d="M42.3013 60.5298L38.0086 79.7105C28.4742 77.5767 20.7054 71.7807 15.8561 64.1329L32.4551 53.6049C34.6112 57.0044 38.0637 59.5815 42.3013 60.5298Z" fill="url(#paint7_linear_4021_1713)"/>
<path d="M68.4031 30.8045L59.0174 36.7574C56.8613 33.358 53.4088 30.7809 49.1712 29.8325L51.5981 18.9884C58.832 20.6073 64.7224 25.0037 68.4031 30.8045Z" fill="url(#paint8_linear_4021_1713)"/>
<path d="M37.3128 31.9001C33.9134 34.0562 31.3363 37.5088 30.3879 41.7463L19.5438 39.3194C21.1628 32.0856 25.559 26.1951 31.3599 22.5145L37.3128 31.9001Z" fill="url(#paint9_linear_4021_1713)"/>
<path d="M51.5983 18.9885L49.1714 29.8326C44.9339 28.8843 40.7122 29.7439 37.3128 31.9L31.3599 22.5144C37.162 18.8358 44.3645 17.3696 51.5983 18.9885Z" fill="url(#paint10_linear_4021_1713)"/>
<path d="M71.929 51.0431L61.0849 48.6162C62.0332 44.3787 61.1736 40.157 59.0175 36.7576L68.4031 30.8047C72.0817 36.6068 73.5479 43.8093 71.929 51.0431Z" fill="url(#paint11_linear_4021_1713)"/>
<path d="M71.9291 51.043C70.3102 58.2768 65.9138 64.1673 60.113 67.8479L54.1601 58.4623C57.5595 56.3062 60.1366 52.8536 61.085 48.6161L71.9291 51.043Z" fill="url(#paint12_linear_4021_1713)"/>
<path d="M32.4554 53.6048L23.0698 59.5577C19.3912 53.7556 17.925 46.5531 19.5439 39.3193L30.388 41.7462C29.4397 45.9837 30.2993 50.2054 32.4554 53.6048Z" fill="url(#paint13_linear_4021_1713)"/>
<path d="M60.1129 67.848C54.3108 71.5266 47.1083 72.9928 39.8745 71.3739L42.3014 60.5298C46.5389 61.4781 50.7606 60.6185 54.16 58.4624L60.1129 67.848Z" fill="url(#paint14_linear_4021_1713)"/>
<path d="M42.3016 60.5298L39.8747 71.3739C32.6408 69.7549 26.7504 65.3586 23.0698 59.5578L32.4554 53.6049C34.6115 57.0043 38.0641 59.5814 42.3016 60.5298Z" fill="url(#paint15_linear_4021_1713)"/>
<path d="M78.5345 31.9009L61.2923 42.8369C61.5747 44.7071 61.5231 46.6597 61.0853 48.616C60.1369 52.8535 57.5598 56.3061 54.1604 58.4622C50.761 60.6183 46.5392 61.4779 42.3017 60.5296C40.3454 60.0918 38.5569 59.3062 36.9856 58.2535L19.7434 69.1895C24.4544 74.2992 30.714 78.0776 38.0092 79.7103C47.5437 81.8441 57.0419 79.9124 64.6885 75.0612C72.3363 70.212 78.1323 62.4431 80.2661 52.9086C81.8986 45.6135 81.1487 38.3405 78.5345 31.9009Z" fill="url(#paint16_linear_4021_1713)"/>
<path d="M13.395 52.9437L1.40402 71.9221C0.823883 72.8403 1.57196 74.02 2.64991 73.8866L24.929 71.1289C29.9657 67.9343 18.4316 49.7493 13.395 52.9437Z" fill="url(#paint17_linear_4021_1713)"/>
<path d="M55.4044 51.8015L24.9286 71.1287C24.6796 70.3326 24.201 69.5704 23.5079 68.9512C22.5599 68.1097 20.7942 68.0591 19.5431 68.1522C19.2711 68.171 19.0677 67.9859 19.0183 67.7614C19.0011 67.6894 19 67.6145 19.0152 67.5421C19.0305 67.4696 19.0616 67.4015 19.1063 67.3425C19.109 67.3431 19.1097 67.3404 19.1097 67.3404C19.2073 67.2069 19.2982 67.0685 19.3819 66.9258L19.4963 66.7206C19.5002 66.7158 19.5008 66.7131 19.502 66.7077C19.6172 66.4858 19.7134 66.2596 19.7918 66.0236C19.8176 65.9468 19.8412 65.8667 19.8641 65.7892C19.9002 65.6597 19.9308 65.529 19.9558 65.397C20.1364 64.4524 20.0259 63.4753 19.6391 62.5949C19.5417 62.3718 19.4271 62.1566 19.2962 61.9514C19.1664 61.7454 19.0206 61.55 18.8603 61.3668C18.1218 60.5181 17.1255 59.9818 16.0666 59.8018C15.9867 59.7896 15.9041 59.7769 15.8237 59.7673C15.5768 59.7377 15.3285 59.7276 15.0813 59.7379C15.0759 59.7366 15.0731 59.736 15.0671 59.7375L14.8328 59.7535C14.7487 59.7603 14.6667 59.7704 14.5841 59.7833C14.5048 59.794 14.4248 59.8075 14.3443 59.8237C14.3416 59.8231 14.3416 59.8231 14.3383 59.8252C14.2659 59.8406 14.191 59.8397 14.1189 59.8226C14.0469 59.8055 13.9796 59.7726 13.9219 59.7263C13.7398 59.5859 13.6591 59.3228 13.792 59.0849C14.4096 57.9928 15.1158 56.3767 14.7586 55.1606C14.4943 54.267 14.0117 53.5096 13.395 52.9445L43.8687 33.6141C45.2421 32.7453 47.0592 33.152 47.9286 34.5227L49.5726 37.1148L54.6689 45.1499L56.313 47.7419C57.1823 49.1124 56.7757 50.9293 55.4044 51.8015Z" fill="url(#paint18_linear_4021_1713)"/>
<path d="M54.6689 45.1496L19.0183 67.7612C19.001 67.6893 19 67.6144 19.0152 67.5419C19.0304 67.4695 19.0615 67.4013 19.1063 67.3424C19.109 67.343 19.1096 67.3403 19.1096 67.3403C19.2082 67.2058 19.7165 66.2573 19.7916 66.0235C19.8207 65.9445 19.8437 65.8671 19.864 65.7891C20.1525 64.7544 20.0921 63.6246 19.6391 62.5948C19.5417 62.3717 19.4271 62.1565 19.2962 61.9512C19.1664 61.7453 19.0206 61.5499 18.8603 61.3666C18.1218 60.5179 17.1255 59.9817 16.0666 59.8017C15.9873 59.7868 15.9074 59.7746 15.8237 59.7672C15.5776 59.7353 15.3291 59.7254 15.0813 59.7377C15.0758 59.7365 15.0731 59.7359 15.067 59.7374C14.9896 59.74 14.425 59.8072 14.3443 59.8234C14.3416 59.8228 14.3416 59.8228 14.3383 59.8249C14.2659 59.8403 14.191 59.8394 14.119 59.8223C14.0469 59.8052 13.9796 59.7723 13.9219 59.726L49.5726 37.1144L54.6689 45.1496Z" fill="url(#paint19_linear_4021_1713)"/>
<path d="M6.14059 70.295C5.55388 69.3686 4.82699 68.5389 3.98587 67.8354L1.40403 71.9218C0.823891 72.8401 1.57197 74.0198 2.64995 73.8862L7.44703 73.2925C7.16929 72.2317 6.72856 71.2205 6.14059 70.295Z" fill="url(#paint20_linear_4021_1713)"/>
<path d="M87.6783 18.5793L50.8785 41.9198L47.4642 36.5367C46.72 35.3634 47.068 33.8087 48.2413 33.0645L51.4609 31.0225C52.149 30.5861 52.7444 30.0184 53.2131 29.3518C53.6818 28.6853 54.0146 27.933 54.1926 27.1378L54.9263 23.8593C55.5035 21.2801 57.6513 19.3496 60.2773 19.0497L86.7757 16.0235C88.2427 15.8559 88.9251 17.7884 87.6783 18.5793Z" fill="url(#paint21_linear_4021_1713)"/>
<path d="M87.6786 18.5793L50.8788 41.9198L54.2931 47.3029C55.0373 48.4763 56.5919 48.8242 57.7653 48.08L60.9848 46.038C61.6729 45.6015 62.4403 45.3049 63.243 45.165C64.0457 45.0251 64.8682 45.0447 65.6633 45.2227L68.9416 45.9564C71.5209 46.5336 74.1827 45.4136 75.5734 43.1659L89.6058 20.4851C90.3827 19.2296 88.9254 17.7884 87.6786 18.5793Z" fill="url(#paint22_linear_4021_1713)"/>
<path d="M70.0246 30.9878L88.5089 19.2641C88.969 18.9722 89.1506 18.3701 88.889 17.892C88.822 17.769 88.7304 17.661 88.62 17.5748C88.5096 17.4886 88.3826 17.426 88.247 17.3909C88.1113 17.3558 87.97 17.3489 87.8316 17.3706C87.6932 17.3924 87.5607 17.4423 87.4424 17.5174L68.9718 29.2326C67.7624 29.9996 66.272 30.2342 64.9073 29.7996C63.645 29.3978 62.2053 29.5875 61.0435 30.4713C59.3972 31.7236 58.9027 34.0304 59.8875 35.8494C61.07 38.0333 63.8295 38.726 65.8908 37.4186C66.9703 36.7339 67.6348 35.6422 67.8118 34.4704C68.027 33.0425 68.8052 31.7612 70.0246 30.9878Z" fill="url(#paint23_linear_4021_1713)"/>
<path d="M53.5489 28.8176C53.0462 29.714 52.3288 30.4716 51.4611 31.0223L48.2415 33.0643C47.0682 33.8085 46.7203 35.3631 47.4645 36.5365L50.8787 41.9196L54.293 47.3027C55.0372 48.4761 56.5919 48.824 57.7652 48.0798L60.9848 46.0378C61.8527 45.4874 62.8438 45.1614 63.869 45.0889L53.5489 28.8176Z" fill="url(#paint24_linear_4021_1713)"/>
<path d="M50.8977 54.6599L39.3621 36.4721L46.6103 31.8749C47.4498 31.3424 48.5619 31.5913 49.0942 32.4307L58.7019 47.5787C59.2343 48.4181 58.9854 49.5302 58.146 50.0625L50.8977 54.6599Z" fill="url(#paint25_linear_4021_1713)"/>
<defs>
<linearGradient id="paint0_linear_4021_1713" x1="50.0169" y1="8.51699" x2="67.736" y2="36.4538" gradientUnits="userSpaceOnUse">
<stop stop-color="#FFF5D9"/>
<stop offset="1" stop-color="#FFCE47"/>
</linearGradient>
<linearGradient id="paint1_linear_4021_1713" x1="18.4868" y1="25.5744" x2="26.418" y2="38.0791" gradientUnits="userSpaceOnUse">
<stop stop-color="#6FA953"/>
<stop offset="1" stop-color="#43765A"/>
</linearGradient>
<linearGradient id="paint2_linear_4021_1713" x1="39.1488" y1="11.4388" x2="49.5717" y2="27.8722" gradientUnits="userSpaceOnUse">
<stop stop-color="#E4E08E"/>
<stop offset="1" stop-color="#6FA953"/>
</linearGradient>
<linearGradient id="paint3_linear_4021_1713" x1="61.4767" y1="26.5846" x2="78.3936" y2="53.2567" gradientUnits="userSpaceOnUse">
<stop stop-color="#FFCE47"/>
<stop offset="1" stop-color="#FF9356"/>
</linearGradient>
<linearGradient id="paint4_linear_4021_1713" x1="61.9168" y1="47.3354" x2="71.7239" y2="62.7978" gradientUnits="userSpaceOnUse">
<stop stop-color="#FF9356"/>
<stop offset="1" stop-color="#FF755C"/>
</linearGradient>
<linearGradient id="paint5_linear_4021_1713" x1="13.7556" y1="38.172" x2="25.2955" y2="56.3663" gradientUnits="userSpaceOnUse">
<stop stop-color="#7ACBFF"/>
<stop offset="1" stop-color="#45A2E0"/>
</linearGradient>
<linearGradient id="paint6_linear_4021_1713" x1="41.8537" y1="62.4162" x2="51.5348" y2="77.6797" gradientUnits="userSpaceOnUse">
<stop stop-color="#FF755C"/>
<stop offset="1" stop-color="#FF4181"/>
</linearGradient>
<linearGradient id="paint7_linear_4021_1713" x1="22.0104" y1="51.187" x2="45.4199" y2="88.0958" gradientUnits="userSpaceOnUse">
<stop stop-color="#FF4181"/>
<stop offset="1" stop-color="#843561"/>
</linearGradient>
<linearGradient id="paint8_linear_4021_1713" x1="62.3006" y1="35.858" x2="51.3953" y2="18.6641" gradientUnits="userSpaceOnUse">
<stop stop-color="#FFF5D9"/>
<stop offset="1" stop-color="#FFCE47"/>
</linearGradient>
<linearGradient id="paint9_linear_4021_1713" x1="31.9603" y1="41.1785" x2="18.4441" y2="19.8681" gradientUnits="userSpaceOnUse">
<stop stop-color="#6FA953"/>
<stop offset="1" stop-color="#43765A"/>
</linearGradient>
<linearGradient id="paint10_linear_4021_1713" x1="47.2753" y1="29.8901" x2="35.2466" y2="10.9249" gradientUnits="userSpaceOnUse">
<stop stop-color="#E4E08E"/>
<stop offset="1" stop-color="#6FA953"/>
</linearGradient>
<linearGradient id="paint11_linear_4021_1713" x1="71.8015" y1="50.8377" x2="59.1031" y2="30.8167" gradientUnits="userSpaceOnUse">
<stop stop-color="#FFCE47"/>
<stop offset="1" stop-color="#FF9356"/>
</linearGradient>
<linearGradient id="paint12_linear_4021_1713" x1="67.9945" y1="62.5569" x2="59.5109" y2="49.1813" gradientUnits="userSpaceOnUse">
<stop stop-color="#FF9356"/>
<stop offset="1" stop-color="#FF755C"/>
</linearGradient>
<linearGradient id="paint13_linear_4021_1713" x1="32.3619" y1="59.5333" x2="16.6987" y2="34.8378" gradientUnits="userSpaceOnUse">
<stop stop-color="#7ACBFF"/>
<stop offset="1" stop-color="#45A2E0"/>
</linearGradient>
<linearGradient id="paint14_linear_4021_1713" x1="52.4204" y1="73.4371" x2="41.0039" y2="55.4372" gradientUnits="userSpaceOnUse">
<stop stop-color="#FF755C"/>
<stop offset="1" stop-color="#FF4181"/>
</linearGradient>
<linearGradient id="paint15_linear_4021_1713" x1="40.1316" y1="71.7834" x2="26.1987" y2="49.8161" gradientUnits="userSpaceOnUse">
<stop stop-color="#FF4181"/>
<stop offset="1" stop-color="#843561"/>
</linearGradient>
<linearGradient id="paint16_linear_4021_1713" x1="57.2438" y1="63.3239" x2="49.1466" y2="50.5574" gradientUnits="userSpaceOnUse">
<stop stop-color="#843561" stop-opacity="0"/>
<stop offset="1" stop-color="#3A2F4D"/>
</linearGradient>
<linearGradient id="paint17_linear_4021_1713" x1="6.40197" y1="57.3444" x2="17.936" y2="75.5296" gradientUnits="userSpaceOnUse">
<stop stop-color="#FFE0EA"/>
<stop offset="1" stop-color="#FFC0D5"/>
</linearGradient>
<linearGradient id="paint18_linear_4021_1713" x1="14.6129" y1="47.5023" x2="55.215" y2="56.5889" gradientUnits="userSpaceOnUse">
<stop stop-color="#FFCE47"/>
<stop offset="1" stop-color="#FF9356"/>
</linearGradient>
<linearGradient id="paint19_linear_4021_1713" x1="39.0811" y1="59.9834" x2="27.4374" y2="41.6254" gradientUnits="userSpaceOnUse">
<stop stop-color="#FFCE47"/>
<stop offset="1" stop-color="#FF9356"/>
</linearGradient>
<linearGradient id="paint20_linear_4021_1713" x1="3.42122" y1="71.2152" x2="6.36423" y2="75.8553" gradientUnits="userSpaceOnUse">
<stop stop-color="#2F73A0"/>
<stop offset="1" stop-color="#174461"/>
</linearGradient>
<linearGradient id="paint21_linear_4021_1713" x1="67.2541" y1="25.0437" x2="68.4914" y2="28.6963" gradientUnits="userSpaceOnUse">
<stop stop-color="#EDF5FF"/>
<stop offset="1" stop-color="#C7E9FF"/>
</linearGradient>
<linearGradient id="paint22_linear_4021_1713" x1="70.8395" y1="32.3414" x2="72.4315" y2="37.6877" gradientUnits="userSpaceOnUse">
<stop stop-color="#EDF5FF"/>
<stop offset="1" stop-color="#C7E9FF"/>
</linearGradient>
<linearGradient id="paint23_linear_4021_1713" x1="76.5683" y1="30.2857" x2="73.0287" y2="24.705" gradientUnits="userSpaceOnUse">
<stop stop-color="#2F73A0"/>
<stop offset="1" stop-color="#174461"/>
</linearGradient>
<linearGradient id="paint24_linear_4021_1713" x1="56.6446" y1="38.242" x2="53.5958" y2="40.1757" gradientUnits="userSpaceOnUse">
<stop stop-color="#7ACBFF" stop-opacity="0"/>
<stop offset="1" stop-color="#2F73A0"/>
</linearGradient>
<linearGradient id="paint25_linear_4021_1713" x1="51.1617" y1="40.8337" x2="45.8895" y2="46.1946" gradientUnits="userSpaceOnUse">
<stop stop-color="#2F73A0"/>
<stop offset="1" stop-color="#174461"/>
</linearGradient>
</defs>
</svg>
