<svg width="94" height="94" viewBox="0 0 94 94" fill="none" xmlns="http://www.w3.org/2000/svg">
<path d="M85.7285 74.6339L29.1481 91.5763C24.882 92.8537 20.5057 90.4944 19.2283 86.2284L2.28591 29.6481C1.00846 25.382 3.36782 21.0057 7.63392 19.7283L64.2143 2.78585C68.4802 1.50845 72.8566 3.86777 74.1341 8.13387L91.0765 64.7142C92.3538 68.9802 89.9944 73.3565 85.7285 74.6339Z" fill="#5CA4DA"/>
<path d="M57.9274 4.66838C58.7292 17.1506 55.5338 31.8081 47.9839 45.8124C39.962 60.692 28.4173 71.9779 16.7407 77.9209L2.28591 29.6481C1.00846 25.382 3.36782 21.0057 7.63393 19.7283L57.9274 4.66838Z" fill="#6DAFE0"/>
<path d="M63.2312 37.0876C64.9412 29.7252 64.5403 23.4841 60.5229 21.5065C56.4383 19.3044 51.2285 22.3323 46.0176 27.8073C40.5426 22.5963 35.0665 19.8323 31.1367 22.2323C27.2069 24.6323 27.316 30.7161 29.4674 37.9009C22.2826 40.0523 17.2073 43.5294 17.2949 47.907C17.4497 52.5091 22.7685 55.5649 30.1309 57.2749C28.4209 64.6373 28.8219 70.8783 32.8392 72.8559C36.9238 75.058 42.1336 72.0301 47.3446 66.5551C52.8195 71.7661 58.2956 74.5301 62.2254 72.1301C66.1552 69.7301 66.0461 63.6463 63.8947 56.4615C71.0795 54.3101 76.1548 50.833 76.0673 46.4554C75.9126 41.8533 70.5937 38.7974 63.2312 37.0876ZM58.95 24.424C60.7005 25.3677 61.3045 29.8355 59.7747 36.1653C57.7095 35.8051 55.4199 35.512 52.973 35.5109C51.6943 33.6918 50.1911 31.94 48.688 30.1882C53.1352 25.4314 56.9749 23.5476 58.95 24.424ZM51.4812 55.0407C48.1362 55.3084 45.4647 55.3745 42.277 55.3503C40.5049 52.7004 39.0917 50.4324 37.477 47.4907C38.8255 44.6404 40.0838 42.3063 41.8812 39.3216C45.2263 39.054 47.8978 38.9879 51.0854 39.012C52.8576 41.6619 54.2707 43.9299 55.8854 46.8716C54.6042 49.9464 53.3459 52.2805 51.4812 55.0407ZM57.9037 51.1603C58.3971 51.9912 58.7332 53.1138 59.0022 54.0119C58.1041 54.2809 57.1387 54.3253 56.0161 54.6615L57.9037 51.1603ZM48.9873 58.9681C48.2909 59.9107 47.7517 60.5613 47.2799 61.4366C46.562 60.673 45.8439 59.9093 45.3505 59.0784C46.9895 58.8323 47.0567 59.0568 48.9873 58.9681ZM37.7648 54.9888C36.7322 54.8087 35.7668 54.853 34.7343 54.673C34.9815 53.8649 35.3862 52.7651 35.8582 51.8899C36.5535 53.3942 36.7779 53.327 37.7648 54.9888ZM35.4586 43.2019C34.9652 42.371 34.629 41.2484 34.3601 40.3503C35.2582 40.0813 36.2235 40.0369 37.3461 39.7008L35.4586 43.2019ZM44.375 35.3941C45.0714 34.4516 45.6106 33.8009 46.0823 32.9256C46.8002 33.6892 47.5183 34.4529 48.0117 35.2838C46.3728 35.5299 46.3055 35.3054 44.375 35.3941ZM55.5975 39.3734C56.63 39.5535 57.5954 39.5092 58.628 39.6892C58.3807 40.4973 57.976 41.5971 57.504 42.4723C56.8088 40.968 56.5843 41.0352 55.5975 39.3734ZM33.2678 25.264C34.9296 24.2771 39.1042 25.9628 43.8611 30.4103C42.401 32.0708 41.2328 33.8885 39.84 35.7736C37.4603 35.9969 35.3723 36.3774 33.0599 36.8252C31.2446 30.7629 31.3815 26.318 33.2678 25.264ZM20.999 48.0209C20.9101 46.0903 24.4809 43.3085 30.7678 41.426C31.5973 43.3795 32.4941 45.5575 33.6156 47.6682C32.8064 49.8678 31.9297 51.8428 31.3449 53.9752C24.7233 52.2882 21.0879 49.9516 20.999 48.0209ZM34.4122 69.9382C32.6618 68.9945 32.0578 64.5267 33.5876 58.1969C35.6527 58.5572 37.9424 58.8502 40.3893 58.8514C41.668 60.6704 43.1712 62.4222 44.6742 64.174C40.2271 68.931 36.3874 70.8146 34.4122 69.9382ZM60.0944 69.0983C58.4327 70.0851 54.2581 68.3994 49.5011 63.9519C50.9612 62.2914 52.1294 60.4737 53.5223 58.5886C55.9019 58.3653 57.9899 57.9848 60.3023 57.537C62.1177 63.5994 61.9807 68.0442 60.0944 69.0983ZM72.3633 46.3413C72.4522 48.272 68.8813 51.0537 62.5945 52.9362C61.7649 50.9827 60.8681 48.8047 59.7467 46.694C60.5559 44.4944 61.4326 42.5194 62.0173 40.387C68.639 42.074 72.2746 44.4105 72.3633 46.3413Z" fill="white"/>
<path d="M48.1602 52.1207C50.8883 51.3038 52.4376 48.4301 51.6207 45.7021C50.8038 42.974 47.9301 41.4247 45.202 42.2416C42.474 43.0585 40.9247 45.9322 41.7416 48.6603C42.5584 51.3883 45.4322 52.9376 48.1602 52.1207Z" fill="white"/>
</svg>
