<svg width="127" height="126" viewBox="0 0 127 126" fill="none" xmlns="http://www.w3.org/2000/svg">
<g clip-path="url(#clip0_4021_1688)" filter="url(#filter0_dd_4021_1688)">
<path d="M59.2355 54.7737C60.3271 55.7942 61.7398 56.4933 63.3374 56.6955L77.0029 58.4258L76.1639 65.052L85.6654 59.5226L89.4025 59.9958C93.431 60.5059 97.1091 57.6636 97.6176 53.6473L100.908 27.6617C101.416 23.6454 98.5629 19.9762 94.5342 19.4661L68.4689 16.1658C64.4403 15.6557 60.7623 18.498 60.2538 22.5143L56.2177 54.3916L59.2355 54.7737Z" fill="#F7F3F1"/>
<path d="M94.5341 19.4661L88.2863 18.675C92.315 19.1851 95.1685 22.8545 94.66 26.8706L91.3698 52.8563C90.8613 56.8726 87.1833 59.7148 83.1547 59.2047L79.4177 58.7316L76.769 60.2729L76.1639 65.052L85.6654 59.5226L89.4024 59.9958C93.431 60.5059 97.109 57.6636 97.6175 53.6473L100.908 27.6617C101.416 23.6456 98.5627 19.9762 94.5341 19.4661Z" fill="#EFE7E3"/>
<path d="M72.0985 46.9749L72.7733 47.6786C73.8432 48.7945 75.2636 49.5092 76.7972 49.7034L87.4703 51.0548C88.4821 51.1829 89.4037 50.442 89.4849 49.4135C89.5611 48.4503 90.7124 39.7358 90.8369 38.7527C90.9613 37.7695 90.2652 36.8714 89.2819 36.7469L82.0473 35.8087L83.1991 33.8222C83.7896 32.8039 84.1372 31.663 84.215 30.4885C84.2928 29.3139 84.0986 28.1372 83.6476 27.0499C83.1355 25.985 81.5434 26.1514 81.3601 27.3574C81.1218 29.2394 80.2046 30.9696 78.7808 32.2231L73.5046 36.8608L71.8222 36.6478L70.5396 46.7773L72.0985 46.9749Z" fill="#FFD36C"/>
<path d="M71.1749 48.4896L66.302 47.8726C66.1473 47.8531 66.0067 47.7728 65.9112 47.6496C65.8156 47.5264 65.7729 47.3702 65.7925 47.2155L67.3654 34.7935C67.3849 34.6388 67.4652 34.4982 67.5884 34.4027C67.7116 34.3071 67.8678 34.2645 68.0225 34.2841L72.8954 34.901C72.972 34.9107 73.0459 34.9354 73.113 34.9737C73.18 35.012 73.2389 35.0631 73.2862 35.1241C73.3335 35.1851 73.3683 35.2549 73.3887 35.3293C73.409 35.4038 73.4145 35.4816 73.4048 35.5582L71.832 47.9802C71.8123 48.1349 71.7321 48.2754 71.6089 48.3709C71.4856 48.4664 71.3296 48.5091 71.1749 48.4896Z" fill="#8EE6F3"/>
<path d="M57.5969 67.7977L60.9176 41.5711C61.3186 38.404 59.0684 35.5104 55.8914 35.1082L35.3368 32.5056C32.1599 32.1034 29.2594 34.3448 28.8584 37.512L26.2638 58.0038C25.8628 61.171 28.113 64.0646 31.29 64.4668L42.5819 65.8965L41.9141 71.1708L49.413 66.7615L57.5969 67.7977Z" fill="#72D1FB"/>
<path d="M55.8917 35.1082L47.7461 34.0768C50.9229 34.4791 53.1733 37.3727 52.7723 40.5398L49.4516 66.7663L57.5972 67.7977L60.9179 41.5712C61.3187 38.404 59.0685 35.5104 55.8917 35.1082Z" fill="#62A6FD"/>
<path d="M50.9152 52.427L46.7813 51.9035L47.581 49.2218L51.262 49.6879C52.7105 49.8713 52.9948 47.6256 51.5464 47.4422L48.2366 47.0231L49.3284 43.3618C49.7455 41.9629 47.5765 41.3159 47.1592 42.7151L45.9605 46.735L43.2518 46.392L44.3436 42.7307C44.7608 41.3318 42.5921 40.6846 42.1744 42.084L40.9758 46.1038L36.4705 45.5334C35.0221 45.35 34.7378 47.5956 36.1862 47.779L40.3202 48.3025L39.5205 50.9842L35.8394 50.5181C34.391 50.3347 34.1066 52.5804 35.5551 52.7638L38.8649 53.1829L37.7731 56.8442C37.3602 58.2283 39.5244 58.892 39.9423 57.4909L41.1409 53.471L43.8496 53.814L42.7578 57.4753C42.345 58.8594 44.5091 59.5232 44.927 58.122L46.1257 54.1022L50.6309 54.6726C52.0793 54.856 52.3637 52.6104 50.9152 52.427ZM44.5052 51.6154L41.7967 51.2724L42.5964 48.5907L45.3051 48.9336L44.5052 51.6154Z" fill="#F7F3F1"/>
<path d="M69.2549 65.0165L54.6683 63.1696C52.4138 62.8841 50.3555 64.4747 50.0709 66.7223L48.2297 81.2642C47.9451 83.5118 49.5421 85.5652 51.7966 85.8507L59.8098 86.8653L59.3359 90.6083L64.6575 87.4792L66.3831 87.6977C68.6376 87.9831 70.6959 86.3926 70.9805 84.145L72.8217 69.603C73.1063 67.3554 71.5094 65.3019 69.2549 65.0165Z" fill="#FA9084"/>
<path d="M69.2545 65.0164L62.9667 64.2203C65.2211 64.5057 66.8181 66.5591 66.5335 68.8067L64.6923 83.3488C64.4077 85.5964 62.3493 87.187 60.0949 86.9015L59.8094 86.8654L59.3355 90.6083L64.6571 87.4792L66.3827 87.6976C68.6372 87.9831 70.6955 86.3925 70.9801 84.1449L72.8214 69.6028C73.1059 67.3554 71.509 65.3018 69.2545 65.0164Z" fill="#FF6CB5"/>
<path d="M59.8997 80.3747C63.6455 78.9583 65.6645 77.6053 65.975 75.1524C66.4034 71.7691 62.3659 70.3985 60.8606 72.7861C59.8392 69.9928 55.7461 70.4199 55.3178 73.803C55.0072 76.2559 56.6253 78.0693 59.8997 80.3747Z" fill="#F7F3F1"/>
</g>
<defs>
<filter id="filter0_dd_4021_1688" x="-5.24718" y="-4.58582" width="135.046" height="135.046" filterUnits="userSpaceOnUse" color-interpolation-filters="sRGB">
<feFlood flood-opacity="0" result="BackgroundImageFix"/>
<feColorMatrix in="SourceAlpha" type="matrix" values="0 0 0 0 0 0 0 0 0 0 0 0 0 0 0 0 0 0 127 0" result="hardAlpha"/>
<feMorphology radius="3.6585" operator="erode" in="SourceAlpha" result="effect1_dropShadow_4021_1688"/>
<feOffset dy="9.75599"/>
<feGaussianBlur stdDeviation="14.634"/>
<feColorMatrix type="matrix" values="0 0 0 0 0.0627451 0 0 0 0 0.0941176 0 0 0 0 0.156863 0 0 0 0.1 0"/>
<feBlend mode="normal" in2="BackgroundImageFix" result="effect1_dropShadow_4021_1688"/>
<feColorMatrix in="SourceAlpha" type="matrix" values="0 0 0 0 0 0 0 0 0 0 0 0 0 0 0 0 0 0 127 0" result="hardAlpha"/>
<feMorphology radius="3.6585" operator="erode" in="SourceAlpha" result="effect2_dropShadow_4021_1688"/>
<feOffset dy="9.75599"/>
<feGaussianBlur stdDeviation="14.634"/>
<feColorMatrix type="matrix" values="0 0 0 0 0.0627451 0 0 0 0 0.0941176 0 0 0 0 0.156863 0 0 0 0.05 0"/>
<feBlend mode="normal" in2="effect1_dropShadow_4021_1688" result="effect2_dropShadow_4021_1688"/>
<feBlend mode="normal" in="SourceGraphic" in2="effect2_dropShadow_4021_1688" result="shape"/>
</filter>
<clipPath id="clip0_4021_1688">
<rect width="75" height="75" fill="white" transform="translate(29.7832 11.2677) rotate(7.21612)"/>
</clipPath>
</defs>
</svg>
