<svg width="85" height="85" viewBox="0 0 85 85" fill="none" xmlns="http://www.w3.org/2000/svg">
<mask id="mask0_1_56" style="mask-type:luminance" maskUnits="userSpaceOnUse" x="0" y="0" width="85" height="85">
<path d="M84.1892 9.68863L9.7832 0.2677L0.362276 74.6737L74.7682 84.0946L84.1892 9.68863Z" fill="white"/>
</mask>
<g mask="url(#mask0_1_56)">
<g filter="url(#filter0_dd_1_56)">
<path d="M39.2355 43.7737C40.3271 44.7942 41.7398 45.4933 43.3374 45.6955L57.0029 47.4258L56.1639 54.052L65.6654 48.5226L69.4025 48.9958C73.431 49.5059 77.1091 46.6636 77.6176 42.6473L80.908 16.6617C81.416 12.6454 78.5629 8.9762 74.5342 8.4661L48.4689 5.1658C44.4403 4.6557 40.7623 7.498 40.2538 11.5143L36.2177 43.3916L39.2355 43.7737Z" fill="#F7F3F1"/>
<path d="M74.5341 8.4661L68.2863 7.675C72.315 8.1851 75.1685 11.8545 74.66 15.8706L71.3698 41.8563C70.8613 45.8726 67.1833 48.7148 63.1547 48.2047L59.4177 47.7316L56.769 49.2729L56.1639 54.052L65.6654 48.5226L69.4024 48.9958C73.431 49.5059 77.109 46.6636 77.6175 42.6473L80.908 16.6617C81.416 12.6456 78.5627 8.9762 74.5341 8.4661Z" fill="#EFE7E3"/>
<path d="M52.0985 35.9749L52.7733 36.6786C53.8432 37.7945 55.2636 38.5092 56.7972 38.7034L67.4703 40.0548C68.4821 40.1829 69.4037 39.442 69.4849 38.4135C69.5611 37.4503 70.7124 28.7358 70.8369 27.7527C70.9613 26.7695 70.2652 25.8714 69.2819 25.7469L62.0473 24.8087L63.1991 22.8222C63.7896 21.8039 64.1372 20.663 64.215 19.4885C64.2928 18.3139 64.0986 17.1372 63.6476 16.0499C63.1355 14.985 61.5434 15.1514 61.3601 16.3574C61.1218 18.2394 60.2046 19.9696 58.7808 21.2231L53.5046 25.8608L51.8222 25.6478L50.5396 35.7773L52.0985 35.9749Z" fill="#FFD36C"/>
<path d="M51.1749 37.4896L46.302 36.8726C46.1473 36.8531 46.0067 36.7728 45.9112 36.6496C45.8156 36.5264 45.7729 36.3702 45.7925 36.2155L47.3654 23.7935C47.3849 23.6388 47.4652 23.4982 47.5884 23.4027C47.7116 23.3071 47.8678 23.2645 48.0225 23.2841L52.8954 23.901C52.972 23.9107 53.0459 23.9354 53.113 23.9737C53.18 24.012 53.2389 24.0631 53.2862 24.1241C53.3335 24.1851 53.3683 24.2549 53.3887 24.3293C53.409 24.4038 53.4145 24.4816 53.4048 24.5582L51.832 36.9802C51.8123 37.1349 51.7321 37.2754 51.6089 37.3709C51.4856 37.4664 51.3296 37.5091 51.1749 37.4896Z" fill="#8EE6F3"/>
<path d="M37.5969 56.7977L40.9176 30.5711C41.3186 27.404 39.0684 24.5104 35.8914 24.1082L15.3368 21.5056C12.1599 21.1034 9.25939 23.3448 8.85839 26.512L6.26379 47.0038C5.86279 50.171 8.11299 53.0646 11.29 53.4668L22.5819 54.8965L21.9141 60.1708L29.413 55.7615L37.5969 56.7977Z" fill="#72D1FB"/>
<path d="M35.8917 24.1082L27.7461 23.0768C30.9229 23.4791 33.1733 26.3727 32.7723 29.5398L29.4516 55.7663L37.5972 56.7977L40.9179 30.5712C41.3187 27.404 39.0685 24.5104 35.8917 24.1082Z" fill="#62A6FD"/>
<path d="M30.9152 41.427L26.7813 40.9035L27.581 38.2218L31.262 38.6879C32.7105 38.8713 32.9948 36.6256 31.5464 36.4422L28.2366 36.0231L29.3284 32.3618C29.7455 30.9629 27.5765 30.3159 27.1592 31.7151L25.9605 35.735L23.2518 35.392L24.3436 31.7307C24.7608 30.3318 22.5921 29.6846 22.1744 31.084L20.9758 35.1038L16.4705 34.5334C15.0221 34.35 14.7378 36.5956 16.1862 36.779L20.3202 37.3025L19.5205 39.9842L15.8394 39.5181C14.391 39.3347 14.1066 41.5804 15.5551 41.7638L18.8649 42.1829L17.7731 45.8442C17.3602 47.2283 19.5244 47.892 19.9423 46.4909L21.1409 42.471L23.8496 42.814L22.7578 46.4753C22.345 47.8594 24.5091 48.5232 24.927 47.122L26.1257 43.1022L30.6309 43.6726C32.0793 43.856 32.3637 41.6104 30.9152 41.427ZM24.5052 40.6154L21.7967 40.2724L22.5964 37.5907L25.3051 37.9336L24.5052 40.6154Z" fill="#F7F3F1"/>
<path d="M49.2549 54.0165L34.6683 52.1696C32.4138 51.8841 30.3555 53.4747 30.0709 55.7223L28.2297 70.2642C27.9451 72.5118 29.5421 74.5652 31.7966 74.8507L39.8098 75.8653L39.3359 79.6083L44.6575 76.4792L46.3831 76.6977C48.6376 76.9831 50.6959 75.3926 50.9805 73.145L52.8217 58.603C53.1063 56.3554 51.5094 54.3019 49.2549 54.0165Z" fill="#FA9084"/>
<path d="M49.2545 54.0164L42.9667 53.2203C45.2211 53.5057 46.8181 55.5591 46.5335 57.8067L44.6923 72.3488C44.4077 74.5964 42.3493 76.187 40.0949 75.9015L39.8094 75.8654L39.3355 79.6083L44.6571 76.4792L46.3827 76.6976C48.6372 76.9831 50.6955 75.3925 50.9801 73.1449L52.8214 58.6028C53.1059 56.3554 51.509 54.3018 49.2545 54.0164Z" fill="#FF6CB5"/>
<path d="M39.8997 69.3747C43.6455 67.9583 45.6645 66.6053 45.975 64.1524C46.4034 60.7691 42.3659 59.3985 40.8606 61.7861C39.8392 58.9928 35.7461 59.4199 35.3178 62.803C35.0072 65.2559 36.6253 67.0693 39.8997 69.3747Z" fill="#F7F3F1"/>
</g>
</g>
<defs>
<filter id="filter0_dd_1_56" x="-23.0505" y="-14.4054" width="133.285" height="133.038" filterUnits="userSpaceOnUse" color-interpolation-filters="sRGB">
<feFlood flood-opacity="0" result="BackgroundImageFix"/>
<feColorMatrix in="SourceAlpha" type="matrix" values="0 0 0 0 0 0 0 0 0 0 0 0 0 0 0 0 0 0 127 0" result="hardAlpha"/>
<feOffset dy="9.75599"/>
<feGaussianBlur stdDeviation="14.634"/>
<feColorMatrix type="matrix" values="0 0 0 0 0.0627451 0 0 0 0 0.0941176 0 0 0 0 0.156863 0 0 0 0.1 0"/>
<feBlend mode="normal" in2="BackgroundImageFix" result="effect1_dropShadow_1_56"/>
<feColorMatrix in="SourceAlpha" type="matrix" values="0 0 0 0 0 0 0 0 0 0 0 0 0 0 0 0 0 0 127 0" result="hardAlpha"/>
<feOffset dy="9.75599"/>
<feGaussianBlur stdDeviation="14.634"/>
<feColorMatrix type="matrix" values="0 0 0 0 0.0627451 0 0 0 0 0.0941176 0 0 0 0 0.156863 0 0 0 0.05 0"/>
<feBlend mode="normal" in2="effect1_dropShadow_1_56" result="effect2_dropShadow_1_56"/>
<feBlend mode="normal" in="SourceGraphic" in2="effect2_dropShadow_1_56" result="shape"/>
</filter>
</defs>
</svg>
