<svg width="117" height="130" viewBox="0 0 117 130" fill="none" xmlns="http://www.w3.org/2000/svg">
<g filter="url(#filter0_dd_1_30)">
<path d="M65.1373 62.8898L86.7821 59.472L51.7209 16.1403L31.718 68.1667L53.3618 64.7491" fill="#AFB9D2"/>
<path d="M65.1373 62.8894L75.694 61.2225L54.9383 36.5074L42.8052 66.4157L53.3619 64.7488" fill="#E4EAF7"/>
<path d="M86.7821 59.4724L31.718 68.167L38.0374 51.7275L43.3133 38.0082L51.7208 16.1406L66.4604 34.3567L75.7049 45.7816L86.7821 59.4724Z" fill="#BEC8DC"/>
<path d="M75.6944 61.2231L42.8053 66.4163L45.1827 60.5568L50.651 47.077L54.9383 36.5074L62.274 45.2433L71.6286 56.3827L75.6944 61.2231Z" fill="#E4EAF7"/>
<path d="M75.7052 45.7816L69.3852 62.2194L49.1166 65.4198L38.0375 51.7276L43.3134 38.0082L58.0513 56.2245L66.4605 34.3567L75.7052 45.7816Z" fill="#95A5B9"/>
<path d="M71.6285 56.3829L69.3854 62.2194L49.1168 65.4198L45.1824 60.557L50.6509 47.0771L58.0515 56.2245L62.2739 45.2436L71.6285 56.3829Z" fill="#BEC8DC"/>
<path d="M80.8595 21.9632L60.8568 73.9898L25.7954 30.6578L36.884 28.9069L57.8247 54.7892L69.7725 23.7138L80.8595 21.9632Z" fill="#7DE6C4"/>
<path d="M69.7726 23.7138L57.8251 54.7889L36.8843 28.9069L47.4405 27.2401L54.9384 36.5078L59.2164 25.3807L69.7726 23.7138Z" fill="#707384"/>
<path d="M88.2987 86.2934L38.5402 94.1503C37.0745 94.3818 35.699 93.3814 35.4677 91.9163L32.9521 75.9852C32.7207 74.5195 33.7211 73.1445 35.1868 72.9131L84.9454 65.0562C86.4111 64.8248 87.7859 65.8248 88.0173 67.2903L90.5329 83.2216C90.7642 84.6866 89.7643 86.062 88.2987 86.2934Z" fill="#B9EBFF"/>
<path d="M84.9453 65.0556L80.0981 65.8209C81.5639 65.5895 82.9394 66.5898 83.1707 68.055L85.6864 83.9869C85.9177 85.4518 84.9174 86.8274 83.4516 87.0589L88.2988 86.2935C89.7645 86.0621 90.7643 84.6867 90.5329 83.2215L88.0173 67.2895C87.786 65.8247 86.4105 64.8242 84.9453 65.0556Z" fill="#A0DCF0"/>
<path d="M39.1948 77.9561C39.1543 77.6996 39.2685 77.4607 39.5372 77.2407C39.8065 77.0202 40.1031 76.8841 40.4275 76.8328C40.8413 76.7675 41.1106 76.8745 41.2345 77.1527L45.2375 85.8403L46.3525 76.3445C46.3846 76.0417 46.608 75.8569 47.0217 75.7916C47.3348 75.7422 47.657 75.7834 47.9871 75.9144C48.3172 76.0459 48.5022 76.2345 48.541 76.4803C48.5446 76.5029 48.5422 76.5607 48.5335 76.6536L46.9782 87.7146C46.9486 87.9602 46.8095 88.1688 46.5613 88.3395C46.313 88.5103 46.0209 88.6224 45.6858 88.6753C44.9137 88.7972 44.4052 88.6254 44.1595 88.1597L39.2548 78.1187C39.218 78.033 39.1984 77.9787 39.1948 77.9561ZM50.1557 84.5307L49.5199 80.5043C49.4934 80.3364 49.5778 80.1626 49.773 79.9829C49.9683 79.8032 50.2111 79.6901 50.5021 79.6442C50.7819 79.6 51.0421 79.633 51.2831 79.7439C51.5242 79.8547 51.6579 79.9934 51.6842 80.1601L52.3183 84.1759C52.38 84.5666 52.5804 84.8923 52.9198 85.1527C53.2594 85.4135 53.63 85.5121 54.033 85.4485C54.4354 85.385 54.7554 85.1772 54.992 84.8255C55.2289 84.4741 55.3162 84.1028 55.2546 83.7123L54.6179 79.6802C54.5898 79.5022 54.6741 79.3283 54.8712 79.16C55.0682 78.9915 55.3121 78.8847 55.6031 78.8387C55.9162 78.7893 56.1846 78.8158 56.4069 78.9179C56.6292 79.0201 56.7547 79.1614 56.7829 79.3401L57.4213 83.3829C57.5643 84.289 57.3315 85.1402 56.7235 85.9348C56.1153 86.7307 55.319 87.2057 54.3344 87.3611C53.3505 87.5165 52.4437 87.3104 51.6142 86.7416C50.7853 86.1738 50.2987 85.4366 50.1557 84.5307ZM58.7245 83.1436L58.4993 81.7169C58.3545 80.8002 58.5884 79.9552 59.2002 79.1819C59.8116 78.4094 60.6265 77.9423 61.6444 77.7816C62.595 77.6315 63.4565 77.8037 64.2284 78.2976C64.9999 78.7921 65.4577 79.4938 65.6015 80.4043C65.654 80.7367 65.6554 81.0169 65.6053 81.2467C65.5558 81.4757 65.4509 81.6482 65.2914 81.7643C65.1318 81.8804 64.9814 81.9609 64.8394 82.0059C64.6978 82.0515 64.509 82.0922 64.2745 82.1292L60.868 82.6671L60.9077 82.9188C60.9837 83.3996 61.2242 83.7601 61.6287 84C62.0338 84.2396 62.5327 84.3131 63.1255 84.2195C63.5506 84.1524 63.9532 83.98 64.3334 83.7021C64.7137 83.4242 64.9652 83.2756 65.0885 83.2562C65.3236 83.219 65.5364 83.2972 65.7273 83.49C65.9183 83.6835 66.03 83.8809 66.0618 84.082C66.1112 84.3951 65.8778 84.7507 65.3616 85.1473C64.845 85.544 64.1672 85.8085 63.3284 85.941C62.1314 86.13 61.1053 85.9683 60.2505 85.4556C59.3957 84.943 58.887 84.1722 58.7245 83.1436ZM60.6667 81.3921L63.1163 81.0053C63.2954 80.977 63.4163 80.9284 63.4804 80.8598C63.5441 80.7906 63.5626 80.673 63.5361 80.5056C63.4784 80.14 63.289 79.8647 62.9673 79.6803C62.6455 79.4953 62.2777 79.4358 61.8644 79.501C61.4727 79.5629 61.1489 79.7287 60.8941 79.9995C60.6384 80.2697 60.5397 80.5879 60.5974 80.9535L60.6667 81.3921ZM66.5351 81.9618C66.4715 81.5588 66.5115 81.2692 66.6555 81.0918C66.7995 80.9144 67.0673 80.7944 67.4589 80.7326C68.1413 80.6248 68.5408 80.7969 68.6579 81.2483C68.8916 82.4384 69.5625 82.9454 70.6697 82.7705C71.8556 82.5833 72.3468 81.8464 72.1437 80.5601L71.1 73.95L69.3886 74.2202C69.176 74.2538 68.9932 74.1854 68.84 74.0148C68.6869 73.8443 68.5895 73.6246 68.5471 73.3561C68.5065 73.099 68.5305 72.8687 68.6183 72.6659C68.7068 72.4626 68.8628 72.3435 69.0868 72.3081L72.0229 71.8445C72.2801 71.8039 72.5135 71.8302 72.7233 71.9228C72.9328 72.016 73.0543 72.1688 73.0879 72.3813L74.3249 80.2157C74.5333 81.5352 74.3315 82.5619 73.719 83.2947C73.1066 84.0274 72.2248 84.4848 71.0723 84.6667C69.8864 84.854 68.8744 84.7073 68.0362 84.2261C67.1981 83.7457 66.6975 82.9905 66.5351 81.9618ZM75.9703 81.813C75.9297 81.5559 75.9864 81.2804 76.1403 80.9862C76.2945 80.693 76.4948 80.5264 76.7411 80.4876C76.8864 80.4646 77.0624 80.508 77.2692 80.6185C77.4798 80.7319 77.6835 80.8579 77.8791 80.9955C78.0788 81.1366 78.3517 81.2516 78.6986 81.3393C79.0452 81.4277 79.4139 81.4407 79.8055 81.3789C80.3425 81.2941 80.7702 81.1009 81.0898 80.7985C81.4086 80.4955 81.5303 80.1039 81.4544 79.6228C81.4014 79.2877 81.2558 79.0043 81.0189 78.7716C80.7819 78.5403 80.4902 78.3627 80.144 78.2395C79.7734 78.109 79.3968 77.9962 79.0155 77.9016C78.5992 77.7966 78.1873 77.6753 77.7805 77.5382C77.3626 77.3973 76.9741 77.227 76.6155 77.0252C76.2571 76.824 75.947 76.5295 75.6851 76.1404C75.4228 75.752 75.2495 75.2893 75.1647 74.7523C75.0698 74.151 75.1064 73.6012 75.2739 73.1033C75.4421 72.6058 75.7073 72.1972 76.0693 71.8781C76.4282 71.5619 76.8342 71.3035 77.2727 71.1124C77.7128 70.9205 78.1895 70.7845 78.7044 70.7032C78.9954 70.6572 79.3061 70.6289 79.6369 70.6173C79.9677 70.6069 80.3218 70.6188 80.7001 70.6528C81.0776 70.6876 81.397 70.7844 81.6573 70.9431C81.9176 71.1025 82.0686 71.3137 82.1103 71.5778C82.1496 71.8269 82.1118 72.0972 81.9972 72.3876C81.8827 72.6785 81.6912 72.8447 81.4227 72.8871C81.322 72.903 81.0312 72.8407 80.5499 72.6982C80.0688 72.557 79.5546 72.5287 79.0064 72.6153C78.4027 72.7106 77.9533 72.8991 77.6595 73.1807C77.3657 73.4623 77.2505 73.8044 77.314 74.2066C77.3653 74.5312 77.5445 74.7925 77.8508 74.9903C78.1573 75.1887 78.5212 75.3317 78.9417 75.42C79.3629 75.5082 79.8236 75.6308 80.3239 75.7862C80.8241 75.9424 81.294 76.1232 81.7339 76.3288C82.1734 76.5346 82.5678 76.8708 82.9166 77.3372C83.2654 77.8035 83.4933 78.3781 83.601 79.0603C83.7822 80.2077 83.5559 81.1506 82.9216 81.889C82.2871 82.6282 81.3714 83.092 80.1742 83.281C79.1116 83.4488 78.1656 83.3745 77.3365 83.0583C76.5064 82.7427 76.0515 82.3274 75.9703 81.813Z" fill="#54A1FF"/>
</g>
<defs>
<filter id="filter0_dd_1_30" x="-3.4726" y="-3.37171" width="123.307" height="136.579" filterUnits="userSpaceOnUse" color-interpolation-filters="sRGB">
<feFlood flood-opacity="0" result="BackgroundImageFix"/>
<feColorMatrix in="SourceAlpha" type="matrix" values="0 0 0 0 0 0 0 0 0 0 0 0 0 0 0 0 0 0 127 0" result="hardAlpha"/>
<feOffset dy="9.75599"/>
<feGaussianBlur stdDeviation="14.634"/>
<feColorMatrix type="matrix" values="0 0 0 0 0.0627451 0 0 0 0 0.0941176 0 0 0 0 0.156863 0 0 0 0.1 0"/>
<feBlend mode="normal" in2="BackgroundImageFix" result="effect1_dropShadow_1_30"/>
<feColorMatrix in="SourceAlpha" type="matrix" values="0 0 0 0 0 0 0 0 0 0 0 0 0 0 0 0 0 0 127 0" result="hardAlpha"/>
<feOffset dy="9.75599"/>
<feGaussianBlur stdDeviation="14.634"/>
<feColorMatrix type="matrix" values="0 0 0 0 0.0627451 0 0 0 0 0.0941176 0 0 0 0 0.156863 0 0 0 0.05 0"/>
<feBlend mode="normal" in2="effect1_dropShadow_1_30" result="effect2_dropShadow_1_30"/>
<feBlend mode="normal" in="SourceGraphic" in2="effect2_dropShadow_1_30" result="shape"/>
</filter>
</defs>
</svg>
