<svg width="372" height="307" viewBox="0 0 372 307" fill="none" xmlns="http://www.w3.org/2000/svg">
<g filter="url(#filter0_dd_4000_2461)">
<path d="M204.022 252.562C220.315 247.138 204.559 132.208 193.68 135.824C182.802 139.44 172.801 153.22 171.192 171.935C170.216 182.93 170.411 209.365 170.704 229.204L184.607 186.204C184.607 186.204 185.338 238.635 181.924 255.249C188.021 255.542 196.071 255.2 204.022 252.562Z" fill="#C0C3D6"/>
<path d="M181.582 255.444C181.68 255.542 181.777 255.591 181.875 255.591C183.192 255.64 184.509 255.689 185.826 255.689C192.412 255.689 198.558 254.76 204.12 252.904C217.632 248.408 210.169 173.987 200.802 145.646C198.266 137.925 195.875 134.554 193.534 135.336C181.631 139.294 172.265 154.246 170.753 171.789C169.777 182.783 169.972 209.023 170.265 229.107C170.265 229.302 170.411 229.497 170.606 229.497C170.85 229.546 170.997 229.4 171.045 229.204L184.119 188.647C184.217 199.397 184.363 240.736 181.436 255.005C181.485 255.249 181.485 255.347 181.582 255.444ZM184.997 186.155C184.997 185.959 184.851 185.764 184.656 185.764C184.46 185.715 184.265 185.861 184.217 186.057L171.094 226.663C170.802 206.971 170.704 182.441 171.631 171.984C173.143 154.784 182.265 140.124 193.827 136.264C195.534 135.727 197.827 139.245 200.071 146.037C204.607 159.817 208.803 185.275 210.169 207.997C211.778 233.846 209.437 250.362 203.924 252.219C197.485 254.369 190.266 255.249 182.46 254.858C185.68 237.853 184.997 186.692 184.997 186.155Z" fill="#C0C3D6"/>
<path d="M171.192 253.734C171.192 253.734 175.534 254.809 181.924 255.2C185.29 238.586 184.607 186.155 184.607 186.155L170.704 229.155C170.899 243.033 171.192 253.734 171.192 253.734Z" fill="#9FA3B5"/>
<path d="M184.656 185.764C184.461 185.715 184.265 185.862 184.217 186.057L170.314 229.058C170.314 229.107 170.314 229.156 170.314 229.204C170.509 242.935 170.802 253.685 170.802 253.783C170.802 253.979 170.948 254.125 171.094 254.174C171.143 254.174 175.533 255.298 181.924 255.64C182.119 255.64 182.314 255.493 182.314 255.298C185.68 238.831 184.997 186.692 184.997 186.155C184.997 185.959 184.851 185.764 184.656 185.764ZM181.582 254.76C176.46 254.467 172.655 253.685 171.582 253.441C171.533 251.535 171.289 241.616 171.094 229.253L184.168 188.745C184.265 199.446 184.412 240.199 181.582 254.76Z" fill="#9FA3B5"/>
<path d="M187.192 134.652C180.363 140.222 181.826 146.917 181.826 146.917C181.826 146.917 188.461 157.569 196.266 149.995C204.12 142.372 194.022 129.081 187.192 134.652Z" fill="#504566"/>
<path d="M186.948 134.31C179.972 139.978 181.387 146.672 181.436 146.965C181.436 147.014 181.485 147.063 181.485 147.112C181.631 147.307 184.851 152.487 189.631 153.073C189.924 153.122 190.217 153.122 190.509 153.122C192.607 153.122 194.656 152.194 196.607 150.288C201.095 145.939 199.973 139.636 196.656 135.922C194.217 133.137 190.266 131.622 186.948 134.31ZM196.022 149.653C194.022 151.608 191.875 152.487 189.729 152.194C185.631 151.705 182.607 147.259 182.216 146.721C182.07 145.988 181.192 140.075 187.436 134.945C190.509 132.404 193.973 134.163 195.973 136.411C199.095 139.88 200.119 145.695 196.022 149.653Z" fill="#504566"/>
<path d="M194.314 248.408C202.217 249.288 240.023 252.61 265.634 240.981C265.536 240.052 265.39 239.026 265.244 238C253.78 237.413 239.145 177.994 239.145 177.994C244.023 175.551 252.707 187.572 259.487 201.498L257.585 130.205C257.585 130.205 222.706 114.031 199.046 117.744C175.387 121.458 167.436 119.015 167.436 119.015C167.436 119.015 130.898 125.416 118.995 143.007C111.385 154.246 106.702 196.172 103.629 220.164C114.849 203.013 132.556 182.197 132.556 182.197C132.556 182.197 136.313 209.61 127.825 225.491C124.751 231.257 122.751 237.56 121.483 243.326C135.435 247.577 157.289 252.024 178.607 247.48C181.29 224.122 191.875 149.653 186.753 144.864C180.948 139.44 175.046 126.198 185.875 126.736C196.705 127.273 193.485 143.349 193.485 143.349C191.485 152.536 190.997 221.239 194.314 248.408Z" fill="#FCD375"/>
<path d="M193.875 248.457C193.875 248.652 194.071 248.799 194.266 248.848C197.29 249.19 205.486 249.972 215.876 249.972C230.901 249.972 250.56 248.359 265.78 241.42C265.927 241.323 266.024 241.176 266.024 240.981C265.927 240.052 265.78 239.026 265.634 238C265.585 237.804 265.439 237.658 265.244 237.658C262.122 237.511 256.609 232.185 248.267 207.753C243.682 194.266 240.218 180.682 239.633 178.385C240.267 178.19 240.95 178.19 241.731 178.483C246.17 179.998 252.804 188.94 259.097 201.84C259.195 202.036 259.39 202.133 259.585 202.085C259.78 202.036 259.926 201.84 259.926 201.645L258.024 130.351C258.024 130.205 257.926 130.058 257.78 129.961C257.438 129.814 222.511 113.786 198.998 117.451C175.777 121.116 167.631 118.771 167.582 118.771C167.533 118.771 167.436 118.722 167.387 118.771C166.997 118.819 130.508 125.367 118.654 142.91C111.629 153.269 107.043 189.673 104.019 213.763C103.726 216.011 103.482 218.161 103.19 220.213C103.141 220.409 103.287 220.604 103.482 220.653C103.677 220.702 103.873 220.653 103.97 220.506C113.873 205.358 128.995 187.181 132.264 183.32C132.8 188.305 134.898 211.515 127.434 225.393C124.703 230.475 122.556 236.485 121.044 243.326C120.995 243.522 121.141 243.766 121.337 243.815C135.825 248.212 157.533 252.513 178.655 247.968C178.851 247.919 178.948 247.773 178.997 247.626C179.485 243.57 180.168 238 180.997 231.55C186.265 189.673 191.095 148.431 187.046 144.62C182.802 140.662 179.046 133.234 180.607 129.521C181.29 127.859 183.046 127.078 185.826 127.175C188.168 127.273 189.973 128.153 191.241 129.765C194.802 134.31 193.046 143.203 193.046 143.301C190.949 153.025 190.705 222.168 193.875 248.457ZM191.827 129.228C190.412 127.42 188.363 126.393 185.778 126.296C181.875 126.1 180.314 127.762 179.729 129.13C177.875 133.479 182.363 141.395 186.363 145.157C190.461 148.969 183.68 202.573 180.07 231.354C179.29 237.658 178.607 243.131 178.119 247.137C157.435 251.486 136.215 247.333 121.873 243.033C123.385 236.436 125.483 230.573 128.068 225.686C136.557 209.854 132.898 182.392 132.849 182.148C132.849 182.001 132.703 181.855 132.556 181.806C132.41 181.757 132.215 181.806 132.117 181.952C131.922 182.148 115.239 201.742 104.117 218.454C104.312 216.939 104.507 215.424 104.702 213.812C107.726 189.82 112.263 153.513 119.19 143.301C130.556 126.491 165.192 119.895 167.289 119.504C168.314 119.797 176.655 121.703 198.998 118.184C221.242 114.715 253.975 129.13 257.048 130.498L258.902 199.641C253.975 189.82 247.145 179.362 241.926 177.603C240.804 177.212 239.779 177.261 238.901 177.701C238.706 177.799 238.657 177.994 238.657 178.19C238.706 178.336 242.365 193.24 247.438 207.997C254.073 227.494 259.926 237.756 264.805 238.489C264.902 239.27 265 240.052 265.097 240.834C239.877 252.122 202.705 248.994 194.656 248.115C191.339 220.018 192.022 152.145 193.778 143.545C193.875 143.056 195.583 134.065 191.827 129.228Z" fill="#FCD375"/>
<path d="M119.629 254.174C123.873 255.689 128.703 256.91 134.069 257.399C154.167 259.305 177.68 262.774 177.924 253.734C177.973 252.708 178.168 250.509 178.509 247.48C157.24 252.024 135.337 247.528 121.385 243.326C120.507 247.382 119.971 251.144 119.629 254.174Z" fill="#504566"/>
<path d="M121.532 242.935C121.434 242.886 121.288 242.935 121.19 242.984C121.093 243.033 120.995 243.131 120.995 243.277C120.215 246.795 119.629 250.46 119.19 254.174C119.19 254.369 119.288 254.565 119.483 254.614C124.264 256.324 129.142 257.399 134.02 257.888C136.215 258.083 138.459 258.327 140.752 258.572C148.606 259.353 156.606 260.184 163.192 260.184C169.387 260.184 174.314 259.451 176.704 257.35C177.777 256.422 178.314 255.249 178.363 253.832C178.412 252.855 178.558 250.9 178.948 247.626C178.948 247.479 178.899 247.382 178.802 247.284C178.704 247.186 178.558 247.137 178.412 247.186C157.484 251.535 135.922 247.284 121.532 242.935ZM177.485 253.734C177.436 254.907 176.997 255.835 176.119 256.617C171.436 260.722 155.874 259.158 140.801 257.643C138.557 257.399 136.313 257.204 134.069 256.959C129.386 256.519 124.703 255.493 120.068 253.881C120.459 250.46 120.995 247.089 121.727 243.864C136.069 248.164 157.289 252.317 178.021 248.017C177.68 250.998 177.534 252.806 177.485 253.734Z" fill="#504566"/>
<path d="M194.315 248.408C194.998 254.027 195.827 257.888 196.851 259.06C202.803 265.804 266.024 258.767 266.268 249.874C266.317 247.968 266.073 244.792 265.585 241.029C239.975 252.61 202.217 249.239 194.315 248.408Z" fill="#504566"/>
<path d="M265.78 240.59C265.683 240.541 265.536 240.541 265.39 240.59C239.779 252.219 201.681 248.75 194.315 247.968C194.168 247.968 194.071 248.017 193.973 248.066C193.876 248.164 193.827 248.261 193.876 248.408C194.607 254.565 195.485 258.083 196.51 259.305C198.266 261.308 204.559 262.139 212.705 262.139C227.486 262.139 248.365 259.354 259.244 255.396C264.122 253.636 266.658 251.731 266.707 249.825C266.756 248.066 266.512 245.036 266.024 240.883C265.975 240.785 265.927 240.687 265.78 240.59ZM265.829 249.825C265.78 251.34 263.341 253.05 258.902 254.614C241.243 260.966 201.388 263.654 197.095 258.718C196.51 258.034 195.583 255.738 194.705 248.848C203.193 249.727 239.975 252.757 265.195 241.567C265.683 245.427 265.878 248.164 265.829 249.825Z" fill="#504566"/>
<path d="M101.336 239.173C104.068 237.56 106.653 237.902 106.653 237.902C106.653 237.902 112.361 240.541 121.434 243.277C122.702 237.511 124.703 231.208 127.776 225.442C136.264 209.561 132.508 182.148 132.508 182.148C132.508 182.148 114.751 202.915 103.58 220.115C102.507 228.227 101.775 235.019 101.336 239.173Z" fill="#E8AE37"/>
<path d="M132.605 181.757C132.459 181.708 132.264 181.757 132.166 181.903C131.971 182.099 114.263 202.915 103.19 219.92C103.141 219.969 103.141 220.018 103.141 220.115C102.116 228.178 101.385 234.921 100.946 239.173C100.946 239.319 100.994 239.466 101.141 239.563C101.287 239.661 101.433 239.661 101.58 239.563C103.921 238.195 106.165 238.342 106.556 238.342C107.239 238.635 112.849 241.176 121.288 243.717C121.337 243.717 121.385 243.717 121.385 243.717C121.483 243.717 121.532 243.717 121.58 243.668C121.678 243.619 121.776 243.521 121.776 243.375C123.288 236.583 125.385 230.621 128.068 225.637C136.557 209.805 132.898 182.343 132.849 182.099C132.898 181.952 132.752 181.806 132.605 181.757ZM127.386 225.295C124.751 230.23 122.605 236.143 121.093 242.789C112.409 240.15 106.897 237.56 106.8 237.56C106.751 237.56 106.702 237.511 106.702 237.511C106.653 237.511 106.409 237.462 106.019 237.462C105.141 237.462 103.58 237.609 101.824 238.44C102.263 234.188 102.995 227.836 103.921 220.262C113.824 205.114 128.898 186.985 132.166 183.174C132.752 188.158 134.849 211.369 127.386 225.295Z" fill="#E8AE37"/>
<path d="M101.336 239.173C101.043 242.007 100.897 243.619 100.897 243.619C100.897 243.619 107.97 250.021 119.629 254.174C119.971 251.144 120.507 247.382 121.434 243.326C112.409 240.59 106.653 237.951 106.653 237.951C106.653 237.951 104.068 237.56 101.336 239.173Z" fill="#191446"/>
<path d="M106.848 237.56C106.8 237.56 106.751 237.511 106.751 237.511C106.653 237.511 103.97 237.169 101.19 238.831C101.092 238.879 100.994 239.026 100.994 239.173C100.702 242.007 100.555 243.619 100.555 243.619C100.555 243.766 100.604 243.864 100.702 243.961C100.751 244.01 107.97 250.46 119.58 254.565C119.629 254.565 119.678 254.614 119.727 254.614C119.824 254.614 119.873 254.614 119.971 254.565C120.068 254.516 120.166 254.369 120.166 254.272C120.556 250.607 121.19 246.942 121.922 243.473C121.971 243.277 121.824 243.033 121.629 242.984C112.653 240.199 106.897 237.56 106.848 237.56ZM119.288 253.588C109.043 249.874 102.409 244.401 101.336 243.473C101.385 242.984 101.531 241.567 101.726 239.466C104.019 238.195 106.165 238.342 106.556 238.342C107.19 238.635 112.653 241.078 120.946 243.619C120.215 246.844 119.678 250.216 119.288 253.588Z" fill="#191446"/>
<path d="M239.096 178.043C239.096 178.043 253.731 237.413 265.195 238.049C263.292 223.976 259.487 204.137 259.487 204.137L259.438 201.547C252.706 187.621 243.974 175.6 239.096 178.043Z" fill="#E8AE37"/>
<path d="M259.829 201.352C254.853 191.09 247.536 179.46 241.974 177.555C240.852 177.164 239.828 177.212 238.95 177.652C238.755 177.75 238.706 177.945 238.706 178.141C239.291 180.584 253.536 237.804 265.195 238.44C265.292 238.44 265.439 238.391 265.487 238.293C265.585 238.195 265.634 238.098 265.585 237.951C263.682 224.025 259.926 204.186 259.877 204.088L259.829 201.498C259.877 201.449 259.877 201.4 259.829 201.352ZM264.707 237.511C254.219 235.312 240.804 183.076 239.584 178.288C240.218 178.092 240.901 178.092 241.682 178.385C246.121 179.9 252.755 188.793 258.999 201.645L259.097 204.186C259.146 204.381 262.804 223.634 264.707 237.511Z" fill="#E8AE37"/>
<path d="M211.827 124.585C210.9 124.488 210.071 125.123 209.974 126.051C209.876 126.98 210.51 127.811 211.437 127.908C225.876 129.667 247.097 134.065 249.048 138.463C249.341 139.098 249.926 139.44 250.56 139.44C250.804 139.44 250.999 139.391 251.243 139.294C252.072 138.903 252.463 137.925 252.072 137.046C248.658 129.374 217.974 125.318 211.827 124.585Z" fill="#4461AB"/>
<path d="M161.289 127.517C160.216 127.566 135.142 128.592 118.312 151.705C117.775 152.438 117.922 153.513 118.702 154.051C118.995 154.246 119.336 154.393 119.678 154.393C120.215 154.393 120.702 154.149 121.044 153.709C136.898 131.964 161.191 130.889 161.435 130.889C162.362 130.84 163.094 130.107 163.045 129.13C162.996 128.201 162.265 127.517 161.387 127.517C161.289 127.517 161.289 127.517 161.289 127.517Z" fill="#4461AB"/>
<path d="M115.092 91.5043C112.507 97.4658 116.312 124.781 116.312 124.781L131.288 134.505C131.288 134.505 150.216 124.243 150.752 112.467C151.289 100.691 135.483 76.454 135.483 76.454C135.483 76.454 117.678 85.5429 115.092 91.5043Z" fill="#F9C09D"/>
<path d="M135.337 76.112C134.605 76.5029 117.336 85.2985 114.751 91.3577C112.166 97.368 115.775 123.755 115.922 124.879C115.922 124.976 116.019 125.123 116.117 125.172L131.093 134.896C131.142 134.945 131.239 134.945 131.337 134.945C131.386 134.945 131.483 134.945 131.532 134.896C132.313 134.456 150.655 124.341 151.191 112.467C151.728 100.691 136.508 77.2359 135.874 76.2097C135.727 76.0631 135.483 76.0143 135.337 76.112ZM150.362 112.467C149.874 123.217 133.435 132.844 131.337 134.065L116.702 124.586C116.361 122.142 113.092 97.2214 115.483 91.6997C117.775 86.3735 132.898 78.3597 135.337 77.0404C137.191 79.9234 150.85 101.668 150.362 112.467Z" fill="#F9C09D"/>
<path d="M128.751 101.521C120.654 105.431 119.873 121.898 119.873 121.898C119.873 121.898 124.02 120.579 127.434 116.816C130.8 113.005 146.85 114.764 148.167 115.594C149.435 116.425 136.849 97.6123 128.751 101.521Z" fill="#F9AE82"/>
<path d="M128.556 101.131C120.312 105.137 119.434 121.165 119.434 121.849C119.434 121.996 119.483 122.093 119.58 122.191C119.678 122.24 119.727 122.289 119.824 122.289C119.873 122.289 119.922 122.289 119.971 122.289C120.166 122.24 124.263 120.921 127.678 117.06C130.898 113.493 146.752 115.204 147.874 115.937C148.02 116.034 148.362 116.034 148.508 115.888C148.703 115.692 148.947 115.399 146.557 112.125C144.752 109.731 135.435 97.8078 128.556 101.131ZM147.435 114.91C143.63 113.982 130.264 112.956 127.093 116.523C124.556 119.357 121.58 120.774 120.312 121.263C120.556 118.233 122.02 105.235 128.947 101.864C129.63 101.522 130.361 101.375 131.191 101.375C132.264 101.375 133.435 101.668 134.703 102.255C140.264 104.942 145.971 112.467 147.435 114.91Z" fill="#F9AE82"/>
<path d="M128.361 80.1187C123.483 82.6108 123.288 91.9929 127.922 101.082C132.556 110.17 140.264 115.546 145.142 113.053C150.02 110.561 150.216 101.179 145.581 92.0905C140.947 83.0017 133.239 77.6266 128.361 80.1187Z" fill="#924260"/>
<path d="M128.215 79.7278C123.142 82.3176 122.898 91.9928 127.629 101.277C129.922 105.724 132.996 109.486 136.264 111.783C138.459 113.347 140.654 114.128 142.557 114.128C143.581 114.128 144.508 113.933 145.386 113.493C147.874 112.223 149.289 109.242 149.386 105.137C149.484 101.13 148.264 96.4395 145.972 91.9928C141.24 82.6108 133.239 77.138 128.215 79.7278ZM148.508 105.04C148.411 108.851 147.191 111.539 144.947 112.662C142.752 113.786 139.825 113.2 136.703 111.05C133.532 108.802 130.556 105.235 128.312 100.886C123.776 91.9928 123.922 82.8551 128.556 80.4608C129.288 80.0698 130.117 79.8744 130.995 79.8744C135.532 79.8744 141.386 84.8097 145.191 92.2371C147.435 96.6349 148.606 101.179 148.508 105.04Z" fill="#924260"/>
<path d="M133.874 77.7732C129.093 80.2165 128.947 89.403 133.483 98.2963C138.02 107.19 145.532 112.467 150.313 110.024C155.094 107.581 155.24 98.394 150.703 89.5007C146.167 80.5585 138.605 75.33 133.874 77.7732Z" fill="#191446"/>
<path d="M133.678 77.3825C128.703 79.9235 128.459 89.4032 133.093 98.492C135.337 102.841 138.313 106.506 141.581 108.753C143.728 110.268 145.874 111.05 147.728 111.05C148.703 111.05 149.63 110.855 150.508 110.415C155.484 107.874 155.728 98.3942 151.094 89.3054C146.459 80.1678 138.605 74.8416 133.678 77.3825ZM150.118 109.633C147.972 110.757 145.093 110.17 142.069 108.069C138.947 105.919 136.02 102.352 133.874 98.101C129.434 89.4031 129.532 80.461 134.117 78.1155C134.849 77.7246 135.679 77.5779 136.508 77.5779C140.947 77.5779 146.654 82.4155 150.362 89.6474C154.752 98.3453 154.655 107.336 150.118 109.633Z" fill="#191446"/>
<path d="M172.655 138.707C168.46 142.861 168.997 156.005 168.997 156.005C168.997 156.005 175.826 144.718 187.192 145.744C187.192 145.793 176.802 134.554 172.655 138.707Z" fill="#E8AE37"/>
<path d="M175.094 137.339C173.972 137.339 173.046 137.681 172.363 138.365C168.119 142.616 168.558 155.468 168.606 156.005C168.606 156.201 168.753 156.347 168.899 156.396C168.948 156.396 168.948 156.396 168.997 156.396C169.143 156.396 169.289 156.298 169.338 156.201C169.387 156.103 176.168 145.157 187.143 146.135C187.339 146.135 187.485 146.037 187.583 145.89C187.68 145.744 187.631 145.548 187.534 145.402C187.192 145.157 180.021 137.437 175.094 137.339ZM185.729 145.304C177.241 145.304 171.387 152.047 169.387 154.735C169.387 151.363 169.68 142.226 172.899 139.049C173.436 138.512 174.119 138.267 174.948 138.267C174.997 138.267 174.997 138.267 175.046 138.267C178.753 138.365 184.168 143.398 186.119 145.353C186.022 145.304 185.875 145.304 185.729 145.304Z" fill="#E8AE37"/>
<path d="M192.607 145.353C192.607 145.353 201.583 138.854 213.486 154.051C213.486 154.051 208.803 135.629 204.022 135.824C199.29 135.971 194.217 138.854 192.607 145.353Z" fill="#E8AE37"/>
<path d="M204.12 135.385C204.071 135.385 204.071 135.385 204.022 135.385C199.485 135.58 193.973 138.219 192.217 145.255C192.168 145.451 192.266 145.597 192.363 145.695C192.51 145.793 192.705 145.793 192.851 145.695C193.192 145.451 201.681 139.636 213.144 154.295C213.242 154.393 213.339 154.442 213.486 154.442C213.535 154.442 213.632 154.442 213.681 154.393C213.876 154.295 213.974 154.1 213.925 153.904C213.437 151.998 209.047 135.385 204.12 135.385ZM197.729 143.594C195.729 143.594 194.168 144.082 193.29 144.522C195.193 138.658 200.022 136.362 204.071 136.215H204.12C207.339 136.215 210.949 146.477 212.608 152.243C206.608 145.255 201.388 143.594 197.729 143.594Z" fill="#E8AE37"/>
<path d="M176.021 117.744C174.509 118.086 173.631 118.331 173.631 118.331C173.631 118.331 182.656 146.575 189.583 145.793C194.461 145.255 201.973 128.153 203.583 118.526C184.558 143.007 176.021 117.744 176.021 117.744Z" fill="#F9C09D"/>
<path d="M203.193 118.233C197.193 126.003 191.68 129.472 186.802 128.69C179.826 127.517 176.411 117.745 176.411 117.647C176.363 117.451 176.119 117.305 175.924 117.354L173.533 117.94C173.436 117.989 173.338 118.038 173.241 118.135C173.192 118.233 173.192 118.38 173.192 118.477C173.582 119.65 182.168 146.233 189.241 146.233C189.339 146.233 189.436 146.233 189.583 146.233C194.997 145.597 202.461 127.566 203.973 118.624C204.022 118.429 203.925 118.233 203.729 118.184C203.534 117.989 203.339 118.038 203.193 118.233ZM189.485 145.353C189.388 145.353 189.339 145.353 189.241 145.353C183.973 145.353 176.704 126.54 174.119 118.624L175.729 118.233C176.412 120.09 179.875 128.348 186.656 129.472C191.583 130.303 196.998 127.126 202.803 120.041C200.607 130.303 193.583 144.864 189.485 145.353Z" fill="#F9C09D"/>
<path d="M201.827 112.076C196.363 113.054 181.778 116.376 176.021 117.745C176.021 117.745 184.558 143.007 203.534 118.477C204.217 114.422 203.876 111.734 201.827 112.076Z" fill="#E68262"/>
<path d="M201.778 111.685C196.559 112.614 183.339 115.643 175.924 117.354C175.826 117.402 175.729 117.451 175.631 117.549C175.582 117.647 175.582 117.793 175.582 117.891C175.729 118.331 179.143 128.25 186.656 129.521C187.144 129.619 187.68 129.668 188.217 129.668C193.046 129.668 198.266 126.003 203.876 118.771C203.925 118.722 203.925 118.673 203.973 118.575C204.559 115.252 204.364 113.054 203.437 112.174C203.144 111.832 202.608 111.49 201.778 111.685ZM202.803 112.711C203.193 113.102 203.778 114.373 203.144 118.282C197.193 125.954 191.68 129.423 186.802 128.641C180.704 127.615 177.338 119.943 176.558 118.038C182.802 116.572 196.656 113.396 201.876 112.467C202.315 112.418 202.608 112.516 202.803 112.711Z" fill="#E68262"/>
<path d="M192.607 145.353C202.705 125.514 213.486 154.051 213.486 154.051C213.486 154.051 216.559 128.592 214.998 124.488C213.486 120.383 203.827 114.715 203.827 114.715C203.827 114.715 204.803 117.549 199.583 128.348C194.363 139.147 192.607 145.353 192.607 145.353Z" fill="#2893D0"/>
<path d="M192.217 145.255C192.168 145.451 192.266 145.695 192.461 145.744C192.656 145.842 192.9 145.744 192.997 145.548C195.339 140.906 197.924 138.61 200.607 138.756C207.339 139.098 213.047 154.002 213.096 154.197C213.144 154.344 213.339 154.491 213.486 154.491H213.535C213.73 154.491 213.876 154.295 213.925 154.1C214.071 153.074 216.998 128.495 215.437 124.341C213.876 120.139 204.51 114.568 204.071 114.324C203.924 114.226 203.729 114.275 203.583 114.373C203.437 114.471 203.388 114.666 203.437 114.813C203.437 114.862 204.217 117.793 199.241 128.104C194.119 138.805 192.217 145.157 192.217 145.255ZM204.364 115.497C206.607 116.865 213.437 121.361 214.657 124.634C215.925 128.006 213.925 146.721 213.291 152.341C211.583 148.383 206.656 138.219 200.705 137.926C200.607 137.926 200.51 137.926 200.412 137.926C198.266 137.926 196.217 139.245 194.314 141.786C195.388 138.903 197.241 134.358 200.022 128.495C203.729 120.774 204.315 117.012 204.364 115.497Z" fill="#2893D0"/>
<path d="M229.145 88.5235C229.682 81.145 238.316 39.6102 202.51 29.1532C166.704 18.6962 134.361 31.9874 129.922 62.5765C129.922 62.5765 130.508 85.0541 139.484 90.869C148.459 96.6839 149.191 119.162 143.874 122.045C140.849 123.706 148.167 122.875 154.947 121.849C158.606 117.012 155.826 105.724 153.825 103.378C151.679 100.789 149.63 92.5304 148.069 88.0838C146.508 83.6371 148.02 79.4836 148.02 79.4836C148.02 79.4836 166.362 103.036 172.558 115.106C173.924 114.08 174.85 113.396 174.85 113.396H196.217C197.485 105.822 204.851 77.1382 204.851 77.1382C204.851 77.1382 209.73 78.1642 213.486 79.4836C217.242 80.8029 219.291 98.5408 212.803 105.48C208.559 110.073 209.925 116.914 211.388 121.116C214.12 122.289 217.145 123.217 220.413 123.559C220.413 123.559 216.462 112.711 220.413 107.825C224.462 102.987 228.608 95.9509 229.145 88.5235Z" fill="#4461AB"/>
<path d="M229.584 88.5723C229.633 87.9371 229.73 87.0086 229.877 85.8359C231.291 74.1084 235.633 38.3886 202.607 28.7623C181.924 22.752 162.021 24.4622 147.972 33.5021C137.679 40.0988 131.288 50.1648 129.483 62.6252C129.532 63.5537 130.166 85.3961 139.24 91.2599C144.557 94.7292 147.045 104.551 146.752 112.467C146.557 117.256 145.386 120.774 143.679 121.702C143.337 121.898 142.606 122.289 142.801 122.875C142.947 123.364 143.191 124.097 155.045 122.289C155.143 122.289 155.24 122.191 155.338 122.142C159.191 117.011 156.216 105.528 154.216 103.134C152.703 101.326 151.142 96.2929 149.923 92.2372C149.435 90.6735 148.996 89.2076 148.557 87.986C147.484 84.8098 147.972 81.7802 148.313 80.412C151.289 84.2723 166.753 104.551 172.314 115.35C172.363 115.448 172.46 115.545 172.606 115.545C172.704 115.594 172.85 115.546 172.948 115.497C174.07 114.715 174.85 114.08 175.143 113.835H196.363C196.558 113.835 196.754 113.689 196.802 113.493C197.973 106.506 204.461 81.1449 205.339 77.6755C206.559 77.9687 210.461 78.8483 213.535 79.9233C214.462 80.2165 215.388 81.9268 215.974 84.4188C217.388 90.0871 217.291 100.3 212.657 105.235C208.413 109.828 209.486 116.474 211.144 121.312C211.193 121.409 211.291 121.507 211.388 121.556C214.51 122.875 217.584 123.706 220.51 124.048H220.559C220.706 124.048 220.803 123.999 220.901 123.901C220.998 123.804 220.998 123.657 220.949 123.51C220.901 123.413 217.096 112.809 220.901 108.167C223.828 104.404 228.95 96.977 229.584 88.5723ZM219.925 123.071C217.34 122.729 214.608 121.996 211.876 120.823C210.315 116.278 209.339 110.024 213.242 105.773C218.071 100.593 218.218 89.9894 216.754 84.1745C216.364 82.5131 215.388 79.679 213.779 79.0927C210.022 77.7733 205.144 76.7471 205.095 76.7471C204.851 76.6983 204.656 76.8448 204.608 77.0403C204.559 77.3334 197.437 104.991 196.022 113.005H175.046C174.948 113.005 174.85 113.053 174.802 113.102C174.802 113.102 174.07 113.689 172.899 114.519C166.558 102.401 148.752 79.4835 148.557 79.2392C148.459 79.1414 148.313 79.0438 148.167 79.0927C148.02 79.0927 147.874 79.2392 147.825 79.3858C147.776 79.5812 146.264 83.7347 147.825 88.2791C148.215 89.4518 148.703 90.9178 149.142 92.4815C150.459 96.8304 151.972 101.766 153.63 103.72C155.435 105.87 158.216 116.718 154.801 121.556C147.24 122.68 144.752 122.729 143.923 122.631C143.971 122.582 144.069 122.533 144.118 122.484C146.118 121.409 147.435 117.647 147.63 112.516C147.923 104.6 145.581 94.3384 139.727 90.5758C131.044 84.9564 130.361 62.8697 130.361 62.7231C132.117 50.5558 138.41 40.734 148.459 34.2351C162.313 25.3417 181.973 23.6315 202.412 29.593C234.706 39.0238 230.462 74.2061 229.096 85.7382C228.95 86.9109 228.852 87.8394 228.803 88.4746C228.218 96.635 223.193 103.916 220.267 107.532C216.657 111.93 219.096 120.627 219.925 123.071Z" fill="#4461AB"/>
<path d="M164.85 120.285C167.533 118.77 170.606 116.62 172.655 115.154C166.46 103.085 148.118 79.5323 148.118 79.5323C148.118 79.5323 146.606 83.6859 148.167 88.1325C149.728 92.5792 151.728 100.837 153.923 103.427C155.923 105.773 158.655 117.06 155.045 121.898C160.07 121.165 164.85 120.285 164.85 120.285Z" fill="#283A84"/>
<path d="M154.606 122.093C154.703 122.24 154.801 122.289 154.947 122.289H154.996C160.021 121.556 164.85 120.676 164.899 120.676C164.948 120.676 164.997 120.627 165.045 120.627C167.728 119.113 170.753 117.011 172.85 115.448C172.997 115.35 173.094 115.106 172.997 114.91C166.85 102.938 148.606 79.4347 148.411 79.1904C148.313 79.0926 148.167 78.9949 148.02 79.0438C147.874 79.0438 147.728 79.1904 147.679 79.337C147.63 79.5324 146.118 83.6859 147.679 88.2303C148.069 89.403 148.557 90.8689 148.996 92.4326C150.313 96.7815 151.825 101.717 153.484 103.671C155.338 105.87 158.118 116.914 154.557 121.654C154.557 121.8 154.508 121.947 154.606 122.093ZM154.216 103.134C152.703 101.326 151.142 96.2929 149.923 92.2372C149.435 90.6735 148.996 89.2076 148.557 87.986C147.484 84.8098 147.972 81.7802 148.313 80.412C151.289 84.2723 166.46 104.16 172.119 115.008C170.07 116.474 167.24 118.477 164.753 119.846C164.167 119.943 160.216 120.627 155.874 121.312C158.899 115.888 156.118 105.382 154.216 103.134Z" fill="#283A84"/>
<path d="M213.584 79.5325C209.779 78.2131 204.949 77.187 204.949 77.187C204.949 77.187 197.583 105.919 196.315 113.444H199.437C199.437 113.444 204.364 118.086 211.486 121.165C210.022 116.963 208.657 110.122 212.901 105.528C219.389 98.5407 217.389 80.8029 213.584 79.5325Z" fill="#283A84"/>
<path d="M216.706 84.1746C216.315 82.5132 215.34 79.6791 213.73 79.0927C209.974 77.7734 205.095 76.7472 205.047 76.7472C204.803 76.6983 204.608 76.8449 204.559 77.0403C204.461 77.3335 197.144 105.87 195.924 113.347C195.924 113.444 195.924 113.591 196.022 113.689C196.119 113.786 196.217 113.835 196.363 113.835H199.339C200.168 114.568 204.9 118.722 211.388 121.507C211.437 121.507 211.486 121.556 211.535 121.556C211.632 121.556 211.73 121.507 211.827 121.458C211.925 121.36 211.974 121.165 211.925 121.018C210.315 116.425 209.242 110.073 213.242 105.822C218.071 100.593 218.169 90.0383 216.706 84.1746ZM210.803 120.383C204.266 117.402 199.778 113.2 199.729 113.151C199.632 113.053 199.534 113.054 199.437 113.054H196.802C198.168 105.48 204.364 81.0961 205.242 77.7245C206.461 78.0177 210.364 78.8972 213.437 79.9722C214.364 80.2654 215.291 81.9757 215.876 84.4678C217.291 90.1361 217.193 100.349 212.559 105.284C208.608 109.535 209.339 115.692 210.803 120.383Z" fill="#283A84"/>
<path d="M144.849 88.5234C143.24 96.4394 154.02 100.446 157.289 98.7849C160.508 97.1724 151.874 82.9039 151.874 82.9039C151.874 82.9039 146.508 80.6073 144.849 88.5234Z" fill="#F9AE82"/>
<path d="M152.069 82.562C151.972 82.5131 149.972 81.6825 147.923 82.7575C146.215 83.637 145.045 85.5916 144.459 88.4746C143.825 91.6508 145.045 94.6804 147.923 96.8793C150.118 98.5895 153.142 99.6157 155.435 99.6157C156.216 99.6157 156.947 99.4691 157.484 99.2248C157.923 99.0293 158.167 98.6384 158.313 98.1498C159.338 94.5338 152.508 83.2461 152.216 82.7575C152.216 82.6598 152.118 82.6108 152.069 82.562ZM157.533 97.9055C157.435 98.1987 157.338 98.3452 157.094 98.4429C155.435 99.2736 151.386 98.4918 148.411 96.1952C146.557 94.7781 144.508 92.2861 145.24 88.6212C145.776 85.9825 146.801 84.2723 148.264 83.4905C148.898 83.1484 149.533 83.0506 150.118 83.0506C150.801 83.0506 151.386 83.1972 151.581 83.2949C153.581 86.5688 158.313 95.2179 157.533 97.9055Z" fill="#F9AE82"/>
<path d="M154.069 34.8215C154.069 34.8215 177.875 24.6577 194.266 31.5476C210.657 38.3886 222.364 63.5537 224.706 74.3528C227.047 85.1518 231.73 57.8367 231.73 57.8367C231.73 57.8367 196.9 0.420897 154.069 34.8215Z" fill="#283A84"/>
<path d="M188.802 24.0224C176.851 21.9212 165.094 25.4394 153.825 34.5282C153.679 34.6748 153.63 34.8703 153.728 35.0658C153.825 35.2612 154.069 35.31 154.264 35.2612C154.508 35.1635 178.07 25.244 194.119 31.9873C210.217 38.7306 221.925 63.4071 224.316 74.4994C224.755 76.4539 225.291 77.3335 226.023 77.3335C228.608 77.2847 231.34 62.4787 232.121 57.9832C232.121 57.8854 232.121 57.7878 232.072 57.69C231.877 57.2991 214.169 28.5179 188.802 24.0224ZM225.974 76.4051C225.974 76.4051 225.535 76.3563 225.047 74.2062C222.608 62.9674 210.754 37.9487 194.363 31.1077C190.217 29.3486 185.583 28.7134 180.948 28.7134C170.997 28.7134 161.143 31.743 156.557 33.3555C166.948 25.7327 177.729 22.8497 188.607 24.8042C212.705 29.0554 229.877 55.7843 231.243 57.8854C229.291 69.3197 226.999 76.4051 225.974 76.4051Z" fill="#283A84"/>
<path d="M163.582 15.6178C134.947 25.5373 128.654 48.6502 126.654 64.5312C124.654 80.4121 133.873 63.0652 133.873 63.0652C133.873 63.0652 134.752 52.4127 141.435 45.1808C148.118 37.9488 164.118 23.3384 192.217 28.7624C220.315 34.1864 227.876 61.8436 227.876 61.8436L235.047 58.7162C235.047 58.7162 230.95 43.0307 221.388 32.5737C211.827 22.1167 192.266 5.69831 163.582 15.6178Z" fill="#504566"/>
<path d="M163.484 15.2267C141.63 22.8007 129.483 38.926 126.264 64.4821C125.678 69.0265 125.971 71.2255 127.142 71.6164C127.239 71.6653 127.337 71.6652 127.434 71.6652C129.629 71.6652 133.142 65.3129 134.215 63.3094C134.264 63.2606 134.264 63.2117 134.264 63.1628C134.264 63.0651 135.239 52.5592 141.727 45.5716C155.24 30.9123 172.216 25.4394 192.119 29.2997C219.632 34.5771 227.389 61.7946 227.437 62.0878C227.486 62.1856 227.535 62.2833 227.681 62.3321C227.779 62.381 227.925 62.381 228.023 62.3321L235.194 59.2047C235.389 59.107 235.486 58.9116 235.438 58.7161C235.389 58.5695 231.194 42.7863 221.681 32.3782C204.851 13.8097 184.704 7.89708 163.484 15.2267ZM228.169 61.3059C226.998 57.6411 218.364 33.4044 192.314 28.3713C172.07 24.4622 154.85 30.0327 141.142 44.9364C134.8 51.8262 133.581 61.8924 133.483 62.9674C131.337 67.0232 128.41 71.1278 127.434 70.7857C127.239 70.7369 126.41 70.1504 127.142 64.5798C130.264 39.3658 142.264 23.4849 163.777 16.0086C169.875 13.9074 175.631 12.979 180.948 12.979C198.705 12.979 212.217 23.094 221.145 32.8669C229.73 42.2977 233.925 56.1263 234.608 58.5207L228.169 61.3059Z" fill="#504566"/>
<path d="M230.364 65.5084C223.584 67.7073 220.901 78.2131 224.413 88.9633C227.925 99.6646 236.267 106.555 243.048 104.356C249.828 102.157 252.511 91.6509 248.999 80.9007C245.487 70.1505 237.145 63.2606 230.364 65.5084Z" fill="#191446"/>
<path d="M241.145 68.0004C237.535 65.0197 233.633 63.9447 230.218 65.0685C226.803 66.1924 224.267 69.3198 223.096 73.913C221.974 78.4086 222.267 83.7837 223.974 89.061C225.681 94.3384 228.608 98.834 232.169 101.815C234.852 104.014 237.682 105.186 240.316 105.186C241.243 105.186 242.218 105.04 243.097 104.747C250.072 102.45 252.902 91.6998 249.292 80.803C247.633 75.4768 244.755 70.9811 241.145 68.0004ZM242.901 103.916C239.779 104.942 236.169 103.965 232.755 101.131C229.291 98.2964 226.462 93.8986 224.803 88.7678C223.145 83.637 222.803 78.4574 223.925 74.1085C224.998 69.8084 227.34 66.9255 230.462 65.8993C231.291 65.655 232.121 65.5084 232.999 65.5084C235.486 65.5084 238.121 66.5834 240.609 68.6846C244.072 71.5187 246.901 75.9165 248.56 81.0473C251.975 91.5043 249.438 101.766 242.901 103.916Z" fill="#191446"/>
<path d="M235.73 63.7492C228.95 65.9481 226.267 76.454 229.779 87.2042C233.291 97.9543 241.633 104.795 248.414 102.596C255.194 100.398 257.877 89.8917 254.365 79.1415C250.853 68.3914 242.511 61.5015 235.73 63.7492Z" fill="#924260"/>
<path d="M246.511 66.2414C242.901 63.2606 238.999 62.1856 235.584 63.3095C228.608 65.6061 225.779 76.3563 229.389 87.2531C231.096 92.5304 234.023 97.0259 237.584 100.007C240.267 102.206 243.096 103.378 245.731 103.378C246.706 103.378 247.633 103.232 248.511 102.938C251.926 101.815 254.463 98.6874 255.633 94.0941C256.755 89.5986 256.463 84.2235 254.755 78.9461C252.999 73.7176 250.121 69.2221 246.511 66.2414ZM254.804 93.9475C253.731 98.2476 251.389 101.131 248.267 102.157C245.145 103.183 241.535 102.206 238.121 99.3715C234.657 96.5373 231.828 92.1395 230.169 87.0088C226.754 76.5518 229.291 66.2413 235.828 64.0913C236.657 63.8469 237.486 63.7004 238.365 63.7004C240.852 63.7004 243.487 64.7755 245.975 66.8766C249.438 69.7108 252.267 74.1085 253.926 79.2392C255.585 84.37 255.926 89.5986 254.804 93.9475Z" fill="#924260"/>
<path d="M268.561 114.862C263.341 117.305 255.78 122.729 258.512 123.706C281.976 132.257 303.147 108.558 301.342 105.773C299.44 103.036 273.732 112.418 268.561 114.862Z" fill="#191446"/>
<path d="M268.366 114.471C264.512 116.279 257.39 120.823 257.487 123.071C257.487 123.364 257.634 123.852 258.317 124.097C261.731 125.367 265.292 125.954 268.902 125.954C273.781 125.954 278.756 124.83 283.683 122.582C291.001 119.259 296.708 114.129 299.586 110.464C300.659 109.095 302.318 106.652 301.586 105.577C299.391 102.206 271.683 112.956 268.366 114.471ZM298.952 109.975C292.318 118.429 275.537 129.521 258.609 123.364C258.317 123.266 258.317 123.12 258.317 123.071C258.268 121.751 263.78 117.598 268.707 115.301C274.366 112.663 294.074 105.724 299.586 105.724C300.318 105.724 300.757 105.821 300.952 106.115C301.147 106.31 300.757 107.63 298.952 109.975Z" fill="#504566"/>
<path d="M248.706 103.574C248.706 103.574 253.438 114.813 265.975 114.813C267.341 114.813 270.024 128.348 270.024 128.348L301.928 115.497C301.098 109.389 296.269 97.2215 292.074 91.7975C287.878 86.3736 269.78 64.0425 261.683 61.5993C253.585 59.156 241.828 56.3219 235.048 58.7651C228.316 61.2083 219.779 67.9516 216.12 70.0039C212.461 72.0562 218.266 77.871 224.608 74.3528C230.121 71.2743 235.145 68.4403 239.292 69.9062C241.487 69.5642 244.365 69.8085 243.145 69.7596C242.316 69.7107 241.292 70.1017 240.511 70.4926C240.706 70.5903 240.901 70.688 241.048 70.8346C241.048 70.8346 216.266 84.5656 225.535 94.7294C229.291 88.4747 245.584 79.3371 245.584 79.3371C245.584 79.3371 230.56 89.1588 226.511 95.6578C226.657 95.8044 226.852 95.9509 226.998 96.0975C226.998 96.0975 225.535 101.082 231.438 103.183C231.633 101.717 232.023 99.5669 232.852 98.6873C233.682 97.8078 238.462 94.2895 242.218 91.602C244.755 89.7451 246.804 88.3281 246.804 88.3281C246.804 88.3281 244.755 89.794 242.218 91.602C238.462 94.3873 233.633 98.2965 233.047 100.446C232.657 101.815 232.511 102.792 232.462 103.525C232.706 103.574 232.901 103.672 233.194 103.72C233.194 103.72 233.73 110.757 240.609 109.291C247.438 107.825 246.706 105.822 246.17 104.062C244.267 103.427 241.535 103.916 242.511 103.671C243.731 103.329 248.267 102.206 248.267 102.206C248.267 102.206 248.219 102.743 248.17 103.476C248.56 103.476 248.706 103.574 248.706 103.574Z" fill="#F9C09D"/>
<path d="M248.121 103.769C248.219 103.818 248.316 103.818 248.365 103.867C248.999 105.235 254.072 115.204 265.878 115.204C265.878 115.204 265.878 115.204 265.926 115.204C266.707 115.692 268.414 122.289 269.634 128.397C269.683 128.544 269.731 128.641 269.829 128.69C269.878 128.739 269.975 128.739 270.024 128.739C270.073 128.739 270.122 128.739 270.171 128.69L302.074 115.839C302.269 115.79 302.367 115.594 302.318 115.399C301.537 109.389 296.757 97.2214 292.366 91.5043C292.171 91.2111 270.951 63.9447 261.78 61.2083C249.194 57.4458 240.17 56.4685 234.901 58.3742C230.218 60.0844 224.608 63.8471 220.559 66.6323C218.705 67.9028 217.047 69.0267 215.925 69.6619C214.608 70.3949 214.217 71.7631 214.949 73.0824C216.169 75.3302 220.413 77.187 224.852 74.7438L225.193 74.5484C230.413 71.6654 235.34 68.929 239.243 70.2972C239.291 70.346 239.389 70.346 239.438 70.2972C239.731 70.2483 239.974 70.2482 240.267 70.1993C240.218 70.2482 240.17 70.3459 240.17 70.4437C240.17 70.5903 240.218 70.6881 240.316 70.7858C237.291 72.5449 224.559 80.4121 223.242 88.377C222.852 90.8202 223.535 93.0191 225.291 94.9737C225.389 95.0714 225.535 95.1202 225.632 95.1202C225.779 95.1202 225.876 95.0225 225.974 94.9248C227.486 92.4327 230.999 89.4519 234.706 86.8133C231.242 89.6474 227.877 92.7748 226.218 95.4624C226.12 95.6578 226.12 95.8532 226.315 95.9998L226.462 96.1464C226.511 96.1953 226.559 96.2442 226.608 96.293C226.413 97.4169 225.974 101.717 231.389 103.623C231.486 103.672 231.633 103.672 231.73 103.574C231.828 103.525 231.925 103.378 231.925 103.281C232.169 101.18 232.657 99.6158 233.242 98.9806C233.34 98.834 233.584 98.6386 233.877 98.3942C233.243 99.1761 232.852 99.8113 232.706 100.349C232.364 101.57 232.169 102.597 232.121 103.525C232.121 103.72 232.267 103.916 232.462 103.965L232.706 104.014C232.755 104.014 232.852 104.062 232.901 104.062C233.047 104.942 233.535 107.385 235.487 108.851C236.852 109.877 238.657 110.17 240.804 109.682C244.121 108.949 245.975 108.069 246.706 106.848C247.292 105.822 246.95 104.795 246.706 103.916C246.658 103.769 246.56 103.672 246.462 103.623C246.121 103.476 245.731 103.427 245.34 103.378C246.316 103.134 247.341 102.841 247.975 102.694C247.975 102.89 247.926 103.134 247.926 103.378C247.877 103.574 247.975 103.72 248.121 103.769ZM242.511 103.232C242.316 103.281 241.926 103.378 242.023 103.769C242.072 104.16 242.414 104.16 242.853 104.111C243.536 104.111 244.901 104.014 245.975 104.356C246.219 105.089 246.365 105.773 246.023 106.408C245.438 107.385 243.682 108.167 240.706 108.851C238.804 109.242 237.243 109.047 236.072 108.167C234.072 106.652 233.779 103.72 233.779 103.72C233.779 103.525 233.633 103.378 233.438 103.329C233.34 103.281 233.194 103.281 233.096 103.232C233.145 102.499 233.34 101.57 233.633 100.593C234.072 99.0295 237.291 95.951 242.657 91.9929C245.194 90.185 247.243 88.719 247.243 88.719C247.438 88.5725 247.487 88.3282 247.341 88.1327C247.194 87.9372 246.95 87.8883 246.755 88.0349C246.755 88.0349 244.658 89.452 242.121 91.3089C236.511 95.3158 233.34 97.7101 232.657 98.443C231.877 99.3226 231.438 101.131 231.194 102.645C226.315 100.642 227.437 96.4396 227.486 96.2441C227.535 96.0975 227.486 95.9021 227.34 95.8044C227.242 95.7555 227.194 95.6577 227.096 95.6089C231.291 89.2565 245.682 79.7769 245.828 79.6791C246.023 79.5325 246.072 79.2882 245.975 79.0928C245.877 78.8973 245.584 78.8484 245.389 78.9462C244.755 79.2882 229.779 87.7418 225.535 93.9964C224.218 92.335 223.681 90.527 224.023 88.5235C225.437 80.0211 241.145 71.2255 241.292 71.1766C241.438 71.1278 241.487 70.9812 241.487 70.8346C241.487 70.7369 241.438 70.6392 241.389 70.5415C242.072 70.2483 242.706 70.1017 243.145 70.1506C243.487 70.1506 243.682 70.1993 243.828 69.955C243.926 69.8084 243.877 69.6619 243.828 69.5153C243.779 69.4664 243.633 69.4175 243.438 69.3687V69.3199C243.389 69.3199 243.34 69.3199 243.194 69.3199C243.145 69.3199 243.145 69.3199 243.096 69.3199C241.975 69.2222 239.877 69.4175 239.34 69.4664C235.096 68.0493 230.072 70.8347 224.706 73.8154L224.364 74.0108C220.413 76.2097 216.705 74.5972 215.632 72.6915C215.339 72.154 214.998 71.1278 216.266 70.4437C217.437 69.8084 219.047 68.6846 220.949 67.4141C224.998 64.6777 230.511 60.9152 235.096 59.2538C240.17 57.3969 249.048 58.3742 261.439 62.0879C268.853 64.3357 285.732 84.5167 291.635 92.1396C295.83 97.5146 300.464 109.389 301.342 115.301L270.219 127.859C268.951 121.654 267.244 114.471 265.878 114.471C253.731 114.471 248.999 103.623 248.95 103.476C248.902 103.378 248.853 103.281 248.755 103.232C248.755 103.232 248.706 103.183 248.609 103.183C248.609 102.645 248.658 102.254 248.658 102.254C248.658 102.108 248.609 101.961 248.511 101.864C248.414 101.766 248.267 101.717 248.121 101.766C248.267 101.717 243.731 102.89 242.511 103.232Z" fill="#F9C09D"/>
<path d="M226.608 95.6577C230.608 89.1587 245.682 79.337 245.682 79.337C245.682 79.337 229.389 88.4746 225.633 94.7293C225.925 95.0225 226.218 95.3645 226.608 95.6577Z" fill="#DA6249"/>
<path d="M245.438 78.9461C244.755 79.337 228.999 88.2304 225.242 94.485C225.145 94.6316 225.145 94.8271 225.291 94.9737C225.584 95.3157 225.925 95.6089 226.315 95.951C226.413 95.9998 226.511 96.0487 226.608 96.0487H226.657C226.755 96.0487 226.901 95.9509 226.95 95.8531C230.852 89.5008 245.731 79.7279 245.877 79.6302C246.072 79.4836 246.121 79.2393 246.023 79.0438C245.877 78.8972 245.633 78.8484 245.438 78.9461ZM226.511 95.0225C226.364 94.9247 226.267 94.7782 226.169 94.6804C227.73 92.2372 231.194 89.403 234.755 86.8132C231.438 89.5008 228.218 92.4815 226.511 95.0225Z" fill="#DA6249"/>
<path d="M246.95 88.3281C246.95 88.3281 244.901 89.6962 242.365 91.602C243.194 91.0156 243.975 90.4293 244.657 89.9406C246.023 88.9633 246.95 88.3281 246.95 88.3281Z" fill="#DA6249"/>
<path d="M246.706 87.986C246.706 87.986 244.609 89.4031 242.072 91.2599C241.877 91.4065 241.828 91.6508 241.974 91.8463C242.072 91.944 242.17 92.0418 242.316 92.0418C242.414 92.0418 242.511 91.9928 242.56 91.944L244.853 90.3315C246.219 89.3542 247.145 88.719 247.145 88.719C247.34 88.5724 247.389 88.3281 247.243 88.1326C247.194 87.8883 246.902 87.8394 246.706 87.986Z" fill="#DA6249"/>
<path d="M232.608 103.525C232.657 102.792 232.803 101.815 233.194 100.446C233.779 98.2964 238.609 94.3872 242.365 91.6019C238.609 94.2895 233.779 97.8077 232.999 98.6873C232.169 99.6157 231.779 101.717 231.584 103.183C231.877 103.329 232.218 103.427 232.608 103.525Z" fill="#DA6249"/>
<path d="M242.121 91.2599C236.511 95.2667 233.34 97.6612 232.657 98.3941C231.779 99.3714 231.34 101.521 231.145 103.134C231.096 103.329 231.243 103.525 231.438 103.574C231.779 103.671 232.121 103.818 232.511 103.916C232.56 103.916 232.56 103.916 232.608 103.916C232.706 103.916 232.804 103.867 232.852 103.818C232.95 103.72 232.999 103.623 233.047 103.525C233.096 102.694 233.291 101.717 233.584 100.544C234.023 98.9804 237.243 95.9019 242.609 91.9439C242.804 91.7973 242.853 91.553 242.706 91.3576C242.56 91.1621 242.316 91.1133 242.121 91.2599ZM232.755 100.349C232.462 101.326 232.316 102.206 232.218 102.987C232.169 102.987 232.072 102.938 232.023 102.938C232.267 100.984 232.755 99.6157 233.291 98.9805C233.389 98.8339 233.633 98.6384 233.926 98.3941C233.291 99.1271 232.901 99.8112 232.755 100.349Z" fill="#DA6249"/>
<path d="M248.316 103.378C248.316 102.694 248.414 102.108 248.414 102.108C248.414 102.108 243.877 103.281 242.657 103.574C241.682 103.867 244.462 103.329 246.316 103.965V103.916C245.877 102.596 247.487 103.085 248.316 103.378Z" fill="#DA6249"/>
<path d="M248.121 103.769C248.267 103.818 248.414 103.818 248.511 103.72C248.609 103.623 248.706 103.525 248.706 103.378C248.706 102.694 248.804 102.157 248.804 102.157C248.804 102.01 248.755 101.863 248.658 101.766C248.56 101.668 248.414 101.619 248.267 101.668C248.267 101.668 243.731 102.841 242.511 103.134C242.316 103.183 241.926 103.28 242.023 103.671C242.072 104.062 242.414 104.062 242.853 104.014C243.584 103.965 245.048 103.916 246.17 104.307C246.218 104.307 246.219 104.307 246.267 104.307C246.365 104.307 246.511 104.258 246.56 104.16C246.658 104.062 246.706 103.867 246.658 103.72C246.56 103.476 246.609 103.378 246.609 103.378C246.706 103.476 247.097 103.378 248.121 103.769ZM247.877 102.694C247.877 102.743 247.877 102.792 247.877 102.792C247.779 102.792 247.731 102.743 247.633 102.743C247.731 102.743 247.828 102.694 247.877 102.694ZM245.828 103.427C245.682 103.378 245.487 103.378 245.292 103.329C245.487 103.281 245.682 103.232 245.877 103.183C245.828 103.28 245.828 103.378 245.828 103.427Z" fill="#DA6249"/>
<path d="M240.608 70.4436C241.438 70.0527 242.462 69.6618 243.243 69.7106C244.413 69.7595 241.584 69.5152 239.389 69.8573C239.779 70.0038 240.218 70.1993 240.608 70.4436Z" fill="#DA6249"/>
<path d="M243.487 69.3199C243.438 69.3199 243.389 69.3199 243.243 69.3199C243.194 69.3199 243.194 69.3199 243.145 69.3199C241.926 69.2222 239.487 69.4175 239.291 69.4664C239.096 69.5153 238.95 69.6619 238.95 69.8573C238.95 70.0528 239.048 70.2483 239.243 70.2972C239.584 70.4438 239.974 70.5903 240.413 70.8346C240.462 70.8835 240.56 70.8835 240.609 70.8835C240.657 70.8835 240.755 70.8835 240.804 70.8346C241.828 70.346 242.657 70.1017 243.243 70.1506C243.584 70.1506 243.779 70.1994 243.926 69.955C244.023 69.8085 243.974 69.6619 243.926 69.5153C243.828 69.4176 243.682 69.3688 243.487 69.3199Z" fill="#DA6249"/>
<path d="M167.192 113.591C167.192 113.591 160.996 119.797 160.752 124.439C160.509 129.081 167.972 159.719 168.997 155.956C169.728 153.318 169.436 139.049 179.729 142.274C185.875 144.18 187.192 145.744 187.192 145.744C187.192 145.744 173.631 119.552 174.655 115.399C175.68 111.245 167.192 113.591 167.192 113.591Z" fill="#2893D0"/>
<path d="M174.607 113.347C172.85 111.636 167.679 113.053 167.094 113.2C167.045 113.2 166.948 113.249 166.899 113.298C166.655 113.542 160.606 119.699 160.362 124.439C160.216 127.859 166.411 156.347 168.704 156.738C168.753 156.738 168.753 156.738 168.801 156.738C168.997 156.738 169.289 156.641 169.436 156.103C169.582 155.663 169.631 154.93 169.777 154.002C170.167 150.679 170.899 145.157 174.119 143.056C175.582 142.128 177.436 141.981 179.68 142.714C185.534 144.571 186.948 146.037 186.948 146.037C187.095 146.184 187.339 146.232 187.485 146.086C187.68 145.988 187.729 145.744 187.631 145.548C183.875 138.316 174.314 118.771 175.094 115.497C175.289 114.617 175.143 113.884 174.607 113.347ZM186.022 144.424C184.9 143.789 182.997 142.91 179.826 141.884C177.338 141.102 175.241 141.248 173.582 142.323C170.021 144.62 169.289 150.386 168.899 153.855C168.801 154.539 168.753 155.175 168.655 155.614C166.753 152.585 160.996 128.69 161.191 124.439C161.387 120.285 166.704 114.666 167.436 113.933C168.997 113.542 172.85 112.809 174.021 113.884C174.314 114.177 174.411 114.617 174.265 115.252C173.338 119.015 183.143 138.707 186.022 144.424Z" fill="#2893D0"/>
<path d="M172.948 48.3569C168.07 73.6687 151.338 79.5324 148.313 80.412C149.728 86.2269 158.752 120.139 179.826 120.334C185.924 120.383 190.753 119.357 194.656 117.793C206.608 109.486 206.266 85.3473 204.12 75.6233C200.656 73.913 196.071 71.3232 191.388 67.6583C183.387 65.0685 172.948 48.3569 172.948 48.3569Z" fill="#F9C09D"/>
<path d="M204.315 75.2323C199.681 72.9357 195.437 70.2971 191.68 67.3163C191.632 67.2675 191.583 67.2674 191.534 67.2674C183.729 64.7753 173.436 48.3081 173.338 48.1615C173.241 48.0149 173.094 47.9171 172.899 47.966C172.753 48.0148 172.607 48.1126 172.558 48.3081C167.777 73.2778 151.435 79.0927 148.215 80.0211C148.02 80.0699 147.874 80.3143 147.923 80.5097C148.606 83.3439 151.24 93.4099 156.313 102.694C162.85 114.617 170.753 120.676 179.826 120.725C179.973 120.725 180.119 120.725 180.217 120.725C185.68 120.725 190.607 119.846 194.9 118.086C206.608 109.975 206.949 86.3246 204.559 75.4767C204.51 75.3789 204.412 75.2812 204.315 75.2323ZM194.51 117.353C190.314 119.064 185.29 119.943 179.826 119.846C171.094 119.797 163.435 113.835 157.045 102.254C152.216 93.4588 149.63 83.9303 148.801 80.6563C152.801 79.4347 168.216 73.1311 173.143 49.4319C175.436 52.9501 184.07 65.6549 191.144 68.0004C194.9 70.9322 199.095 73.6198 203.681 75.8676C206.071 86.6178 205.681 109.535 194.51 117.353Z" fill="#F9C09D"/>
<path d="M194.656 117.744C205.534 113.347 208.9 104.404 210.071 101.326C211.681 97.1725 212.608 82.0245 210.071 78.4085C210.217 78.2619 207.778 77.3823 204.12 75.5743C206.266 85.2984 206.608 109.437 194.656 117.744Z" fill="#F9AE82"/>
<path d="M194.412 117.402C194.217 117.5 194.168 117.744 194.266 117.94C194.363 118.087 194.51 118.184 194.656 118.184C194.705 118.184 194.754 118.184 194.802 118.135C205.73 113.689 209.144 104.942 210.413 101.619L210.461 101.473C212.071 97.319 213.096 82.2688 210.461 78.2619C210.364 77.9687 210.12 77.8711 208.51 77.1381C207.437 76.6495 206.022 76.0142 204.266 75.1836C204.12 75.1347 203.925 75.1346 203.827 75.2323C203.681 75.3301 203.632 75.4767 203.681 75.6722C206.071 86.3246 205.778 109.486 194.412 117.402ZM204.705 76.3563C206.12 77.0404 207.291 77.5779 208.217 77.9688C208.852 78.262 209.486 78.5551 209.73 78.6529V78.7018C212.169 82.1711 211.193 97.3679 209.681 101.228L209.632 101.375C208.51 104.258 205.681 111.539 197.339 116.083C206.364 106.75 206.754 86.6666 204.705 76.3563Z" fill="#F9AE82"/>
<path d="M148.118 79.5324C148.118 79.5324 148.167 79.8745 148.313 80.412C151.386 79.5324 168.119 73.6686 172.948 48.3569C172.948 48.3569 183.339 65.0685 191.388 67.6583C183.973 61.7946 176.46 53.1945 173.143 40.7341C173.143 40.7341 173.143 72.838 148.118 79.5324Z" fill="#F9AE82"/>
<path d="M173.533 40.5876C173.485 40.3921 173.289 40.2455 173.094 40.2943C172.899 40.3432 172.704 40.4898 172.704 40.7342C172.704 41.0274 172.411 72.5937 147.972 79.1416C147.776 79.1904 147.63 79.4347 147.679 79.6302C147.679 79.6302 147.728 79.9723 147.874 80.5098C147.923 80.6075 147.972 80.7052 148.069 80.7541C148.118 80.803 148.215 80.803 148.264 80.803C148.313 80.803 148.362 80.803 148.362 80.803C151.63 79.8746 167.972 74.0597 173.094 49.4809C175.387 52.9991 184.07 65.8016 191.192 68.0493C191.388 68.0982 191.583 68.0005 191.68 67.8539C191.778 67.6585 191.729 67.463 191.583 67.3164C182.412 59.9867 176.363 51.0445 173.533 40.5876ZM148.606 79.8257C148.898 79.728 149.191 79.6302 149.484 79.5325C149.191 79.6791 148.85 79.7769 148.606 79.8257ZM173.338 48.1126C173.241 47.966 173.143 47.9172 172.997 47.9172C172.948 47.9172 172.948 47.9172 172.899 47.9172C173.192 46.0604 173.387 44.399 173.485 43.1774C176.216 51.6309 181.143 59.1071 188.266 65.4595C181.095 60.5242 173.436 48.2592 173.338 48.1126Z" fill="#F9AE82"/>
<path d="M180.46 69.955C178.607 70.6391 176.997 70.5414 175.485 69.7107C171.485 67.4629 170.021 60.4265 170.021 60.3777C169.924 59.9379 169.484 59.6446 169.045 59.6935C168.606 59.7912 168.314 60.231 168.362 60.6708C168.411 61.0128 169.972 68.4892 174.655 71.1278C175.729 71.7142 176.851 72.0562 178.07 72.0562C178.997 72.0562 180.021 71.8608 181.046 71.5188C181.485 71.3722 181.729 70.8834 181.534 70.4437C181.387 70.0039 180.899 69.8084 180.46 69.955Z" fill="#F9AE82"/>
<path d="M189.729 68.9287C186.753 69.7106 184.07 69.3685 181.68 67.9025C175.094 63.7979 172.899 52.3636 172.85 52.2659C172.753 51.8261 172.314 51.533 171.875 51.5818C171.436 51.6796 171.143 52.1194 171.192 52.5591C171.289 53.0478 173.582 64.8241 180.753 69.3197C182.558 70.4436 184.558 71.0299 186.656 71.0299C187.778 71.0299 188.949 70.8833 190.119 70.5413C190.558 70.4436 190.851 69.9549 190.705 69.5151C190.656 69.0753 190.168 68.7821 189.729 68.9287Z" fill="#F9AE82"/>
<path d="M172.997 39.1704C172.509 39.1704 172.167 39.5614 172.167 40.0012C172.167 40.8319 172.167 60.6709 181.68 67.6096C183.826 69.1733 186.266 69.955 188.949 69.955C190.705 69.955 192.558 69.613 194.558 68.9777C194.997 68.8311 195.241 68.3425 195.095 67.9027C194.949 67.4629 194.461 67.2187 194.022 67.3653C189.534 68.8312 185.729 68.4892 182.656 66.2414C173.875 59.8401 173.875 40.1967 173.875 40.0012C173.826 39.5614 173.436 39.1704 172.997 39.1704Z" fill="#4461AB"/>
<path d="M183.924 67.4629C181.387 69.1732 179.192 69.5641 177.387 68.6845C171.728 65.8992 170.753 51.7773 170.753 51.6308C170.704 51.191 170.363 50.8001 169.875 50.849C169.436 50.8979 169.045 51.2888 169.094 51.7286C169.143 52.3638 170.119 66.9254 176.655 70.1504C177.534 70.5902 178.46 70.7857 179.387 70.7857C181.095 70.7857 182.9 70.1505 184.851 68.8311C185.241 68.5868 185.339 68.0492 185.095 67.6583C184.802 67.3163 184.265 67.2186 183.924 67.4629Z" fill="#4461AB"/>
<path d="M171.24 96.1953C170.704 97.2214 171.045 97.9055 171.289 98.2476C171.923 99.0783 173.387 99.3226 174.802 99.3226C176.119 99.3226 177.387 99.1271 178.021 99.0293C178.46 98.9316 178.802 98.4918 178.704 98.052C178.607 97.6123 178.168 97.2703 177.729 97.368C175.192 97.8078 172.899 97.6612 172.655 97.2703C172.655 97.2703 172.655 97.1725 172.753 96.977C172.997 96.5373 173.338 95.9998 173.728 95.4623C175.777 92.5305 178.851 88.1326 172.07 80.9495C171.777 80.6074 171.24 80.6075 170.899 80.9007C170.558 81.2427 170.558 81.7313 170.85 82.0734C176.704 88.2792 174.314 91.6998 172.362 94.485C171.923 95.0714 171.484 95.6578 171.24 96.1953Z" fill="#62392C"/>
<path d="M161.192 74.9392C160.753 75.1347 160.557 75.6233 160.753 76.063C160.899 76.4051 161.192 76.6006 161.533 76.6006C161.631 76.6006 161.777 76.6005 161.875 76.5517C162.85 76.1608 164.655 75.4279 165.484 75.5256C165.972 75.4767 166.314 75.1836 166.362 74.6949C166.362 74.2551 166.021 73.8642 165.533 73.8153C164.07 73.7176 161.484 74.8415 161.192 74.9392Z" fill="#62392C"/>
<path d="M184.802 71.7631C184.363 71.9097 184.119 72.3494 184.217 72.7892C184.314 73.1312 184.656 73.3755 184.997 73.3755C185.095 73.3755 185.144 73.3756 185.241 73.3267C186.217 73.0335 188.022 72.6426 188.802 72.7892C189.241 72.8869 189.68 72.5937 189.778 72.1539C189.875 71.7141 189.583 71.2743 189.144 71.1766C187.729 70.8834 185.095 71.6653 184.802 71.7631Z" fill="#62392C"/>
<path d="M189.485 78.7995C186.07 79.5325 184.168 84.0769 185.192 88.9144C186.217 93.752 189.827 97.1237 193.241 96.3907C196.656 95.6578 198.559 91.1134 197.534 86.2758C196.51 81.4382 192.851 78.0666 189.485 78.7995Z" fill="white"/>
<path d="M189.388 78.4086C187.583 78.7995 186.119 80.1188 185.29 82.1711C184.461 84.1745 184.265 86.6178 184.802 89.0121C185.778 93.6054 188.997 96.9283 192.315 96.9283C192.656 96.9283 192.997 96.8793 193.339 96.8304C195.144 96.4395 196.607 95.1202 197.437 93.0679C198.266 91.0644 198.461 88.6212 197.924 86.2269C197.388 83.7836 196.266 81.6337 194.656 80.1677C193.046 78.6529 191.144 78.0176 189.388 78.4086ZM196.656 92.7259C195.924 94.485 194.656 95.6577 193.144 95.9998C189.973 96.6839 186.607 93.4589 185.583 88.8656C185.095 86.6179 185.241 84.3212 186.022 82.5132C186.753 80.7541 188.022 79.5813 189.534 79.2392C189.827 79.1904 190.119 79.1415 190.412 79.1415C191.68 79.1415 192.949 79.7279 194.071 80.7541C195.534 82.1223 196.607 84.0769 197.095 86.3735C197.583 88.6213 197.437 90.869 196.656 92.7259Z" fill="white"/>
<path d="M161.631 81.2428C158.216 81.9757 156.313 86.5201 157.338 91.3577C158.362 96.1953 161.972 99.5669 165.387 98.834C168.801 98.101 170.704 93.5566 169.68 88.7191C168.655 83.8815 165.045 80.5098 161.631 81.2428Z" fill="white"/>
<path d="M161.533 80.8518C159.728 81.2427 158.265 82.562 157.435 84.6143C156.606 86.6177 156.411 89.061 156.947 91.4553C157.484 93.8986 158.606 96.0487 160.216 97.5146C161.533 98.7362 162.996 99.3715 164.46 99.3715C164.801 99.3715 165.143 99.3225 165.484 99.2736C167.289 98.8827 168.753 97.5634 169.582 95.5111C170.411 93.5077 170.606 91.0644 170.07 88.6701C169.533 86.2269 168.411 84.0769 166.801 82.6109C165.192 81.0473 163.338 80.4609 161.533 80.8518ZM168.801 95.1691C168.07 96.9282 166.801 98.1009 165.289 98.443C163.777 98.7362 162.167 98.1987 160.752 96.8793C159.289 95.5111 158.216 93.5565 157.728 91.2599C157.24 89.0122 157.387 86.7155 158.167 84.9075C158.899 83.1484 160.167 81.9757 161.679 81.6336C161.972 81.5848 162.265 81.5359 162.557 81.5359C163.826 81.5359 165.094 82.1222 166.216 83.1484C167.68 84.5166 168.753 86.4712 169.241 88.7678C169.728 91.0644 169.582 93.3122 168.801 95.1691Z" fill="white"/>
<path d="M162.704 82.3666C160.557 83.1973 159.728 86.2268 160.801 89.061C161.923 91.944 164.557 93.6054 166.704 92.7747C168.85 91.944 169.68 88.9143 168.606 86.0802C167.533 83.1972 164.899 81.5359 162.704 82.3666Z" fill="#191446"/>
<path d="M166.314 82.5133C165.094 81.7315 163.777 81.5849 162.606 82.0247C161.435 82.4645 160.557 83.4906 160.167 84.9077C159.777 86.2759 159.874 87.8395 160.46 89.3055C161.045 90.7714 162.021 91.9931 163.192 92.7749C163.972 93.2635 164.801 93.5078 165.582 93.5078C166.021 93.5078 166.46 93.4101 166.899 93.2635C169.241 92.3351 170.216 89.11 169.045 85.9827C168.46 84.4679 167.484 83.2463 166.314 82.5133ZM166.606 92.4327C165.679 92.7748 164.655 92.6282 163.631 91.993C162.606 91.3578 161.728 90.2828 161.24 88.9634C160.753 87.6441 160.655 86.2758 160.996 85.1031C161.338 83.9792 161.972 83.1485 162.899 82.8065C163.24 82.6599 163.582 82.6111 163.923 82.6111C164.558 82.6111 165.24 82.8065 165.875 83.2463C166.899 83.8816 167.777 84.9565 168.265 86.2759C169.241 88.9146 168.509 91.6998 166.606 92.4327Z" fill="#191446"/>
<path d="M190.461 79.1415C188.314 79.9722 187.485 83.0018 188.558 85.836C189.68 88.719 192.314 90.3804 194.461 89.5497C196.607 88.719 197.437 85.6894 196.363 82.8553C195.29 80.0212 192.656 78.3108 190.461 79.1415Z" fill="#191446"/>
<path d="M190.314 78.7506C189.144 79.1904 188.314 80.2166 187.875 81.6337C187.485 83.0019 187.583 84.5656 188.168 86.0315C188.753 87.4974 189.729 88.719 190.9 89.5008C191.68 89.9894 192.51 90.2338 193.29 90.2338C193.729 90.2338 194.168 90.136 194.607 89.9894C196.949 89.061 197.924 85.836 196.754 82.7087C195.583 79.5814 192.705 77.8222 190.314 78.7506ZM194.363 89.1588C193.436 89.5008 192.412 89.3543 191.388 88.719C190.363 88.0838 189.485 87.0088 188.997 85.6895C188.509 84.3701 188.412 83.0019 188.753 81.8291C189.095 80.7052 189.729 79.8746 190.656 79.5325C190.997 79.3859 191.339 79.3371 191.68 79.3371C193.388 79.3371 195.193 80.803 196.022 83.0019C196.998 85.6406 196.266 88.4258 194.363 89.1588Z" fill="#191446"/>
<path d="M178.704 108.558C178.265 108.46 177.826 108.753 177.729 109.193C177.631 109.633 177.924 110.073 178.363 110.17C179.29 110.366 180.753 110.903 181.143 111.441C181.29 111.685 181.582 111.783 181.826 111.783C181.973 111.783 182.168 111.734 182.314 111.636C182.704 111.392 182.802 110.855 182.509 110.464C181.631 109.242 179.192 108.656 178.704 108.558Z" fill="#91241E"/>
<path d="M158.899 89.452C158.899 90.4781 159.728 91.3088 160.753 91.3088C161.777 91.3088 162.606 90.4781 162.606 89.452C162.606 88.4258 161.777 87.5951 160.753 87.5951C159.728 87.5951 158.899 88.4258 158.899 89.452Z" fill="white"/>
<path d="M158.509 89.4519C158.509 90.7224 159.533 91.7485 160.801 91.7485C162.07 91.7485 163.094 90.7224 163.094 89.4519C163.094 88.1815 162.07 87.1553 160.801 87.1553C159.533 87.2042 158.509 88.1815 158.509 89.4519ZM162.216 89.4519C162.216 90.2338 161.582 90.869 160.801 90.869C160.021 90.869 159.387 90.2338 159.387 89.4519C159.387 88.6701 160.021 88.0348 160.801 88.0348C161.582 88.0348 162.216 88.6701 162.216 89.4519Z" fill="white"/>
<path d="M186.997 86.7155C186.997 87.7417 187.827 88.5724 188.851 88.5724C189.875 88.5724 190.705 87.7417 190.705 86.7155C190.705 85.6894 189.875 84.8586 188.851 84.8586C187.827 84.8586 186.997 85.6894 186.997 86.7155Z" fill="white"/>
<path d="M186.607 86.7155C186.607 87.986 187.631 89.0121 188.9 89.0121C190.168 89.0121 191.192 87.986 191.192 86.7155C191.192 85.445 190.168 84.4189 188.9 84.4189C187.631 84.4189 186.607 85.445 186.607 86.7155ZM190.314 86.7155C190.314 87.4973 189.68 88.1814 188.851 88.1814C188.07 88.1814 187.387 87.5462 187.387 86.7155C187.387 85.9337 188.022 85.2496 188.851 85.2496C189.68 85.2496 190.314 85.8848 190.314 86.7155Z" fill="white"/>
<path d="M135.386 78.3597C139.288 78.0665 148.898 78.2131 148.313 73.2289C147.728 68.2448 145.289 67.9515 145.289 67.9515C145.289 67.9515 145.337 67.7561 145.337 67.4629C142.313 67.414 138.02 67.8538 131.63 69.2709C119.678 71.9584 116.654 78.1154 116.654 78.1154C116.654 78.1154 118.849 72.3493 132.508 68.5379C138.654 66.8276 142.654 66.1924 145.289 66.0458C144.947 63.7003 143.045 60.0843 134.508 61.2082C122.117 62.8208 116.995 67.2186 113.922 71.1277C110.8 75.0369 106.507 78.5552 104.995 90.8201C103.531 103.085 99.4335 112.418 99.4335 112.418L117.678 123.51C117.678 123.51 136.849 110.512 129.581 95.0713C129.581 95.0713 137.874 92.3837 141.727 92.9212C145.581 93.4099 149.045 88.328 143.484 85.8848C137.923 83.4416 123.873 85.0541 123.873 85.0541C123.873 85.0541 124.264 84.7121 124.898 84.2234C121.385 84.9075 117.336 86.0802 117.336 86.0802C121.434 84.3699 124.312 83.5392 126.264 83.1483C128.849 81.2915 132.849 78.5552 135.386 78.3597Z" fill="#F9C09D"/>
<path d="M126.556 83.5882C130.459 80.6563 133.581 78.9461 135.435 78.7995C135.874 78.7506 136.361 78.7506 136.898 78.7018C140.508 78.5063 145.971 78.2619 148.02 75.8187C148.654 75.0857 148.898 74.1573 148.801 73.1311C148.313 69.0265 146.606 67.9027 145.825 67.6096C145.825 67.5607 145.825 67.5118 145.825 67.4629C145.825 67.3652 145.776 67.2186 145.728 67.1697C145.63 67.072 145.532 67.0231 145.435 67.0231C143.288 66.9742 140.752 67.2186 137.825 67.6583C140.849 66.9742 143.386 66.5834 145.386 66.4856C145.484 66.4856 145.63 66.4368 145.679 66.339C145.776 66.2413 145.776 66.1436 145.776 65.997C145.435 63.5538 143.484 59.6446 134.508 60.8173C121.776 62.4787 116.653 67.0719 113.629 70.9322C113.239 71.4697 112.8 71.9585 112.361 72.496C109.483 75.8676 105.921 80.07 104.653 90.8202C103.19 102.841 99.1895 112.223 99.1407 112.272C99.0432 112.467 99.1407 112.711 99.2871 112.809L117.532 123.901C117.58 123.95 117.678 123.95 117.727 123.95C117.824 123.95 117.873 123.901 117.971 123.901C118.166 123.755 136.996 110.757 130.215 95.4134C131.971 94.8759 138.508 92.9701 141.727 93.4099C143.923 93.7031 146.167 92.2861 146.703 90.2826C147.24 88.3769 146.118 86.6178 143.679 85.5428C139.093 83.5393 128.947 84.2234 125.239 84.5655C125.337 84.4189 125.385 84.2722 125.288 84.1256C125.239 84.0279 125.19 83.9791 125.093 83.9302C125.532 83.8325 125.971 83.7347 126.361 83.637C126.41 83.637 126.459 83.6371 126.556 83.5882ZM117.19 85.7871C116.995 85.8848 116.897 86.0802 116.946 86.3245C117.044 86.52 117.239 86.6666 117.434 86.5689C117.483 86.5689 120.41 85.6894 123.483 85.0541C123.434 85.1519 123.483 85.2495 123.483 85.3473C123.581 85.4938 123.727 85.5916 123.922 85.5916C124.068 85.5916 137.922 84.028 143.288 86.3735C145.337 87.253 146.264 88.6213 145.825 90.0872C145.435 91.5043 143.727 92.8724 141.727 92.5792C137.825 92.0906 129.727 94.6315 129.386 94.7781C129.288 94.827 129.19 94.9247 129.142 95.0224C129.093 95.1202 129.093 95.2667 129.142 95.3645C135.776 109.389 119.678 121.605 117.629 123.119L99.9212 112.369C100.653 110.561 104.019 101.863 105.336 91.0156C106.604 80.5097 109.922 76.6005 112.848 73.1311C113.288 72.5936 113.727 72.105 114.166 71.5675C117.093 67.8538 122.068 63.4071 134.508 61.7946C142.215 60.7685 144.264 63.7003 144.752 65.8504C141.679 66.0458 137.532 66.8766 132.361 68.3425C118.654 72.1539 116.312 77.9199 116.263 78.1642C116.166 78.3597 116.263 78.604 116.507 78.7018C116.702 78.7995 116.946 78.7017 117.044 78.5062C117.093 78.4574 120.166 72.4959 131.776 69.8572C137.044 68.6356 141.484 68.0493 144.898 68.0493C144.898 68.147 144.898 68.2448 144.996 68.3425C145.045 68.4402 145.142 68.489 145.289 68.489C145.289 68.489 147.386 68.8311 147.923 73.3755C148.02 74.1573 147.825 74.8415 147.337 75.4279C145.532 77.5779 140.069 77.8222 136.849 77.9688C136.313 78.0177 135.825 78.0176 135.386 78.0665C132.849 78.262 128.995 80.8029 126.166 82.9529C123.629 83.3439 120.654 84.3212 117.19 85.7871Z" fill="#F9C09D"/>
<path d="M126.264 83.2462C124.312 83.6371 121.385 84.4678 117.336 86.1781C117.336 86.1781 121.385 85.0053 124.898 84.3212C125.288 84.028 125.727 83.6371 126.264 83.2462Z" fill="#DA6249"/>
<path d="M126.215 82.8063C123.727 83.295 120.702 84.2723 117.19 85.7382C116.995 85.8359 116.897 86.0314 116.946 86.2758C116.995 86.4712 117.19 86.5689 117.336 86.5689C117.385 86.5689 117.434 86.5689 117.434 86.5689C117.483 86.5689 121.483 85.3962 124.946 84.7121C124.995 84.7121 125.093 84.6632 125.142 84.6143C125.532 84.3211 125.971 83.9302 126.507 83.5393C126.654 83.4416 126.703 83.1973 126.654 83.0507C126.605 82.9041 126.361 82.8063 126.215 82.8063Z" fill="#DA6249"/>
<path d="M116.654 78.1643C116.654 78.1643 119.678 72.0074 131.63 69.3199C138.02 67.8539 142.313 67.4629 145.337 67.5118C145.337 67.1697 145.386 66.6812 145.289 66.1437C142.606 66.2903 138.654 66.9254 132.508 68.6357C118.849 72.3983 116.654 78.1643 116.654 78.1643Z" fill="#DA6249"/>
<path d="M145.289 65.7038C142.215 65.8504 137.874 66.6811 132.41 68.1959C118.702 72.0074 116.361 77.7733 116.312 78.0176C116.214 78.2131 116.312 78.4574 116.556 78.5552C116.605 78.604 116.654 78.6041 116.702 78.6041C116.849 78.6041 116.995 78.5064 117.093 78.3598C117.141 78.3109 120.215 72.3493 131.825 69.7107C137.337 68.4402 141.923 67.8538 145.435 67.9027C145.679 67.9027 145.825 67.7072 145.874 67.5118C145.923 67.0231 145.874 66.5345 145.825 66.0458C145.679 65.8504 145.484 65.7038 145.289 65.7038ZM144.947 67.072C142.898 67.072 140.508 67.2675 137.776 67.7073C140.606 67.072 142.996 66.6811 144.947 66.5834C144.947 66.73 144.947 66.9254 144.947 67.072Z" fill="#DA6249"/>
<path d="M98.3113 181.268C86.067 203.843 71.7251 256.959 88.2135 253.588C107.775 249.581 122.702 218.991 127.727 209.609C131.093 203.306 133.337 186.399 132.215 173.499C126.849 180.047 108.848 210.098 107.482 219.529C106.458 226.761 98.3601 199.69 98.3113 181.268Z" fill="#2893D0"/>
<path d="M132.361 173.059C132.215 173.01 132.02 173.059 131.922 173.206C126.264 180.095 108.507 209.903 107.141 219.431C107.043 220.018 106.946 220.213 106.946 220.262C105.043 219.529 98.848 197.491 98.7992 181.268C98.7992 181.073 98.6529 180.926 98.5065 180.877C98.3114 180.828 98.1163 180.926 98.0187 181.073C87.1891 201.009 75.5302 242.398 82.6524 252.024C83.7256 253.441 85.1403 254.174 86.8964 254.174C87.3842 254.174 87.872 254.125 88.4086 254.027C106.848 250.265 121.044 223.389 127.093 211.906C127.483 211.124 127.873 210.44 128.215 209.805C131.678 203.306 133.874 186.008 132.752 173.45C132.605 173.254 132.508 173.108 132.361 173.059ZM127.386 209.414C127.044 210.049 126.703 210.733 126.264 211.515C120.263 222.901 106.214 249.483 88.116 253.197C85.9696 253.636 84.3597 253.099 83.2378 251.535C76.701 242.691 87.433 203.16 97.9211 182.93C98.3602 196.27 103.629 220.897 106.848 221.142C107.678 221.19 107.873 219.969 107.921 219.578C109.19 210.685 125.776 182.636 131.873 174.574C132.8 186.888 130.703 203.208 127.386 209.414Z" fill="#2893D0"/>
<path d="M98.3114 181.268C98.3602 199.641 106.458 226.712 107.531 219.48C108.897 210.049 126.898 179.998 132.264 173.45C131.678 167.098 130.312 161.674 127.776 159.035C127.776 159.035 116.946 162.651 104.702 172.375C102.799 173.939 100.604 177.115 98.3114 181.268Z" fill="#4461AB"/>
<path d="M127.629 158.693C127.532 158.742 116.605 162.455 104.458 172.131C102.555 173.645 100.36 176.675 97.9699 181.122C97.9212 181.17 97.9211 181.268 97.9211 181.317C97.9699 194.12 103.531 220.897 106.897 221.142H106.946C107.726 221.142 107.921 219.969 107.97 219.578C109.287 210.391 127.142 180.438 132.605 173.743C132.654 173.645 132.703 173.548 132.703 173.45C132.264 168.515 131.093 161.918 128.117 158.791C127.971 158.693 127.776 158.644 127.629 158.693ZM131.776 173.352C126.02 180.486 108.458 209.952 107.092 219.431C106.995 220.018 106.897 220.213 106.897 220.262C104.995 219.529 98.7992 197.589 98.7504 181.366C101.043 177.115 103.19 174.134 104.995 172.717C116.019 163.97 125.971 160.159 127.678 159.523C129.727 161.967 131.191 166.707 131.776 173.352Z" fill="#4461AB"/>
<path d="M249.877 129.863C240.511 134.212 230.95 161.967 242.023 186.155C253.097 210.343 288.122 253.294 298.366 241.714C308.611 230.182 267.536 134.554 267.536 134.554C267.536 134.554 259.243 125.514 249.877 129.863Z" fill="#2893D0"/>
<path d="M267.829 134.261C267.731 134.163 259.243 125.074 249.682 129.472C240.316 133.821 230.218 161.429 241.633 186.301C251.146 207.02 278.317 241.811 292.562 243.961C293.001 244.01 293.488 244.059 293.879 244.059C295.83 244.059 297.391 243.375 298.61 242.007C308.903 230.377 269.536 138.316 267.829 134.407C267.878 134.31 267.878 134.31 267.829 134.261ZM298.074 241.42C296.757 242.886 295.001 243.424 292.757 243.131C278.951 241.078 251.633 206.043 242.462 185.959C231.681 162.358 240.852 134.505 250.072 130.205C251.828 129.423 253.487 129.081 255.146 129.081C261.585 129.081 266.658 134.163 267.195 134.749C268.463 137.828 307.879 230.328 298.074 241.42Z" fill="#2893D0"/>
<path d="M256.365 143.74C253.487 149.653 257.536 167.733 257.585 174.867C257.585 180.095 282.366 223.829 286.074 217.184C289.83 210.489 264.463 136.704 264.463 136.704C264.463 136.704 259.243 137.828 256.365 143.74Z" fill="#4461AB"/>
<path d="M264.366 136.313C264.122 136.362 258.902 137.535 255.975 143.594C253.975 147.65 255.146 156.983 256.219 165.192C256.707 169.003 257.146 172.619 257.146 174.916C257.146 179.949 277.732 216.499 284.415 218.259C284.61 218.307 284.805 218.356 284.952 218.356C285.586 218.356 286.073 218.063 286.415 217.428C290.22 210.685 265.878 139.636 264.853 136.606C264.805 136.362 264.609 136.264 264.366 136.313ZM285.732 216.988C285.488 217.428 285.147 217.526 284.659 217.428C278.415 215.815 258.024 179.607 258.024 174.916C258.024 172.521 257.536 168.906 257.097 165.094C256.121 157.422 254.902 147.845 256.804 143.985C259.146 139.196 263.048 137.632 264.268 137.29C273 162.797 288.61 211.857 285.732 216.988Z" fill="#4461AB"/>
<path d="M243.877 135.042C243.975 135.091 254.463 141.444 258.316 152.096L261.487 150.972C257.243 139.196 246.072 132.453 245.633 132.159L243.877 135.042Z" fill="#504566"/>
<path d="M316.904 245.33C337.441 239.173 341.051 220.067 338.514 204.186C335.978 188.305 320.123 110.61 301.928 121.165C283.732 131.671 265 137.437 265 137.437C257.78 140.662 256.268 150.728 258.463 159.621C260.658 168.466 273.634 202.036 278.317 209.268C283 216.5 281.195 236.681 281.195 236.681C281.195 236.681 296.367 251.438 316.904 245.33Z" fill="#2893D0"/>
<path d="M280.951 236.974C281.098 237.12 291.635 247.235 306.952 247.235C310.123 247.235 313.489 246.795 317.05 245.72C342.319 238.195 340.222 211.955 338.953 204.137C336.465 188.354 323.928 127.859 308.513 120.53C306.221 119.455 303.977 119.552 301.733 120.823C283.781 131.182 265.097 136.997 264.902 137.095H264.853C257.195 140.564 255.975 151.265 258.073 159.768C260.268 168.515 273.293 202.28 277.976 209.561C282.513 216.597 280.805 236.534 280.805 236.729C280.805 236.729 280.854 236.876 280.951 236.974ZM278.708 209.023C274.024 201.791 261.048 168.221 258.902 159.523C256.853 151.363 257.975 141.102 265.195 137.877C265.975 137.632 284.464 131.817 302.172 121.556C304.123 120.432 306.123 120.334 308.172 121.312C314.562 124.341 321.392 137.828 327.977 160.208C333.587 179.216 337.197 198.469 338.124 204.283C339.344 211.955 341.392 237.609 316.806 244.939C297.781 250.607 283.293 237.951 281.683 236.534C281.83 234.237 283.195 215.962 278.708 209.023Z" fill="#2893D0"/>
<path d="M172.801 233.309C174.957 233.309 176.704 231.559 176.704 229.4C176.704 227.241 174.957 225.491 172.801 225.491C170.646 225.491 168.899 227.241 168.899 229.4C168.899 231.559 170.646 233.309 172.801 233.309Z" fill="#E46790"/>
<path d="M168.46 229.4C168.46 231.794 170.411 233.749 172.802 233.749C175.192 233.749 177.143 231.794 177.143 229.4C177.143 227.005 175.192 225.051 172.802 225.051C170.411 225.051 168.46 227.005 168.46 229.4ZM176.314 229.4C176.314 231.354 174.753 232.918 172.802 232.918C170.85 232.918 169.289 231.354 169.289 229.4C169.289 227.445 170.85 225.881 172.802 225.881C174.753 225.881 176.314 227.494 176.314 229.4Z" fill="#E46790"/>
<path d="M177.924 196.612C180.079 196.612 181.826 194.862 181.826 192.703C181.826 190.544 180.079 188.793 177.924 188.793C175.768 188.793 174.021 190.544 174.021 192.703C174.021 194.862 175.768 196.612 177.924 196.612Z" fill="#E46790"/>
<path d="M173.582 192.703C173.582 195.097 175.533 197.051 177.924 197.051C180.314 197.051 182.265 195.097 182.265 192.703C182.265 190.308 180.314 188.354 177.924 188.354C175.533 188.354 173.582 190.308 173.582 192.703ZM181.387 192.703C181.387 194.657 179.826 196.221 177.875 196.221C175.924 196.221 174.363 194.657 174.363 192.703C174.363 190.748 175.924 189.184 177.875 189.184C179.826 189.184 181.387 190.748 181.387 192.703Z" fill="#E46790"/>
<path d="M177.582 156.103C177.485 158.253 179.143 160.11 181.29 160.257C183.436 160.403 185.29 158.693 185.436 156.543C185.534 154.393 183.875 152.536 181.729 152.389C179.533 152.292 177.68 153.953 177.582 156.103Z" fill="#E46790"/>
<path d="M177.143 156.103C176.997 158.497 178.85 160.55 181.241 160.696C181.338 160.696 181.387 160.696 181.485 160.696C183.777 160.696 185.68 158.888 185.826 156.592C185.973 154.197 184.119 152.145 181.729 151.998C179.29 151.901 177.289 153.709 177.143 156.103ZM184.07 154.002C184.704 154.686 184.997 155.614 184.948 156.543C184.899 157.471 184.509 158.351 183.778 158.937C183.095 159.572 182.168 159.914 181.241 159.817C180.314 159.768 179.436 159.377 178.85 158.644C178.265 157.911 177.924 157.031 177.972 156.103C178.021 155.175 178.411 154.295 179.143 153.709C179.777 153.122 180.607 152.829 181.485 152.829C181.534 152.829 181.631 152.829 181.68 152.829C182.607 152.878 183.485 153.318 184.07 154.002Z" fill="#E46790"/>
<path d="M103.531 111.441C98.0675 109.291 96.9455 111.441 95.8723 114.715C94.7991 117.94 91.3844 123.755 88.116 127.175L129.873 151.363C129.873 151.363 138.02 141.102 137.483 137.828C136.947 134.505 109.043 113.591 103.531 111.441Z" fill="#504566"/>
<path d="M103.726 111.05C101.238 110.073 99.4822 109.877 98.2138 110.512C96.7504 111.197 96.0674 112.809 95.482 114.568C94.4576 117.696 91.1404 123.364 87.8232 126.882C87.7257 126.98 87.6769 127.126 87.7257 127.224C87.7257 127.371 87.8232 127.468 87.9208 127.517L129.678 151.705C129.727 151.754 129.825 151.754 129.873 151.754C130.02 151.754 130.117 151.705 130.215 151.608C131.044 150.533 138.459 141.102 137.874 137.73C137.288 134.016 108.848 113.102 103.726 111.05ZM129.776 150.777L88.7989 127.029C92.0185 123.462 95.2381 117.94 96.2625 114.813C96.7991 113.2 97.3357 111.783 98.5065 111.245C99.5797 110.757 101.141 110.952 103.385 111.832C108.702 113.933 136.556 134.847 137.044 137.828C137.483 140.271 132.166 147.747 129.776 150.777Z" fill="#504566"/>
<path d="M101.824 128.299C92.799 124.585 86.4085 121.947 81.2864 128.299C59.5296 155.419 29.4311 206.336 33.3825 227.641C37.3338 248.945 69.7738 256.519 86.3597 253.978C102.946 251.437 106.556 231.256 107.678 217.916C108.848 204.576 134.995 161.283 134.069 154.784C133.093 148.236 110.848 132.013 101.824 128.299Z" fill="#2893D0"/>
<path d="M101.97 127.908L101.873 127.859C92.7991 124.146 86.2622 121.458 80.945 128.055C58.3101 156.25 28.9921 206.58 32.9435 227.738C36.5046 246.991 62.6517 254.858 79.823 254.858C82.2133 254.858 84.4573 254.711 86.4086 254.418C99.0432 252.513 106.117 240.541 108.068 217.965C108.653 210.929 116.458 195.146 123.337 181.268C129.532 168.71 134.898 157.862 134.459 154.735C133.483 147.894 111.044 131.671 101.97 127.908ZM122.605 180.877C115.727 194.853 107.873 210.685 107.239 217.868C105.336 240.052 98.4578 251.731 86.2623 253.588C70.5544 255.982 37.7729 248.994 33.7728 227.592C31.5288 215.571 40.3096 195.292 48.0171 180.389C57.0906 162.944 69.9203 143.105 81.5792 128.592C83.7256 125.905 86.0671 124.879 88.7989 124.879C92.3112 124.879 96.4089 126.589 101.482 128.641L101.58 128.69C111.239 132.648 132.654 148.725 133.532 154.784C134.02 157.716 128.459 168.954 122.605 180.877Z" fill="#2893D0"/>
<path d="M277.634 139.538C286.122 137.095 308.806 126.882 307.781 121.556C306.708 115.888 306.269 115.155 305.098 112.369C303.879 109.486 299.976 102.987 300.708 106.261C302.171 112.614 282.854 120.481 274.366 123.559C265.878 126.687 260.024 125.612 258.463 122.875C258.463 122.875 255.877 121.8 259.487 130.205C263.146 138.61 262.999 140.76 262.999 140.76C262.999 140.76 269.097 141.981 277.634 139.538Z" fill="#504566"/>
<path d="M262.951 141.199C263.097 141.248 264.609 141.541 267.146 141.541C269.731 141.541 273.439 141.248 277.732 139.978C281.878 138.805 289.635 135.678 296.464 132.013C302.123 128.983 308.806 124.683 308.221 121.458C307.294 116.376 306.806 115.252 305.879 113.054L305.489 112.174C305.44 112.076 302.123 104.942 300.708 104.942C300.659 104.942 300.611 104.942 300.611 104.942C300.025 105.137 300.22 105.919 300.318 106.359C301.781 112.614 280.707 120.823 274.219 123.168C266.073 126.149 260.317 125.172 258.853 122.68C258.804 122.582 258.756 122.533 258.658 122.484C258.414 122.387 257.926 122.338 257.536 122.68C256.999 123.217 256.609 124.585 259.146 130.351C262.658 138.414 262.609 140.711 262.609 140.711C262.609 140.955 262.756 141.15 262.951 141.199ZM258.121 123.315C258.17 123.266 258.17 123.266 258.219 123.266C259.926 125.905 265.683 127.175 274.512 123.95C285.049 120.09 302.415 112.711 301.147 106.261C302.074 107.483 303.879 110.512 304.708 112.467L305.098 113.347C306.025 115.497 306.464 116.572 307.391 121.605C307.781 123.657 303.635 127.175 296.074 131.231C289.293 134.847 281.586 137.925 277.488 139.098C270.268 141.15 264.756 140.564 263.39 140.369C263.292 139.44 262.756 136.606 259.878 130.009C257.487 124.439 257.975 123.462 258.121 123.315Z" fill="#504566"/>
<path d="M311.684 145.353C306.903 126.882 300.952 126.54 299.879 126.638L300.025 128.299V129.961C300.074 129.961 304.367 130.547 308.416 146.135L309.05 148.627C327.246 218.698 332.368 229.546 335.197 230.866L336.709 227.885C334.661 226.272 328.758 211.076 312.318 147.796L311.684 145.353Z" fill="#504566"/>
<path d="M114.166 169.443C130.849 146.428 121.239 135.971 120.849 135.531L118.41 137.877C118.507 137.974 126.361 146.965 111.483 167.488C95.9699 188.891 75.2863 236.681 79.1401 255.249L82.4573 254.565C80.7987 246.649 84.0671 231.501 91.4332 213.03C97.7749 196.807 106.751 179.705 114.166 169.443Z" fill="#504566"/>
</g>
<defs>
<filter id="filter0_dd_4000_2461" x="0.582642" y="0.171448" width="371.038" height="313.967" filterUnits="userSpaceOnUse" color-interpolation-filters="sRGB">
<feFlood flood-opacity="0" result="BackgroundImageFix"/>
<feColorMatrix in="SourceAlpha" type="matrix" values="0 0 0 0 0 0 0 0 0 0 0 0 0 0 0 0 0 0 127 0" result="hardAlpha"/>
<feMorphology radius="8" operator="erode" in="SourceAlpha" result="effect1_dropShadow_4000_2461"/>
<feOffset dy="20"/>
<feGaussianBlur stdDeviation="20"/>
<feColorMatrix type="matrix" values="0 0 0 0 0.0627451 0 0 0 0 0.0941176 0 0 0 0 0.156863 0 0 0 0.1 0"/>
<feBlend mode="normal" in2="BackgroundImageFix" result="effect1_dropShadow_4000_2461"/>
<feColorMatrix in="SourceAlpha" type="matrix" values="0 0 0 0 0 0 0 0 0 0 0 0 0 0 0 0 0 0 127 0" result="hardAlpha"/>
<feMorphology radius="8" operator="erode" in="SourceAlpha" result="effect2_dropShadow_4000_2461"/>
<feOffset dy="20"/>
<feGaussianBlur stdDeviation="20"/>
<feColorMatrix type="matrix" values="0 0 0 0 0.0627451 0 0 0 0 0.0941176 0 0 0 0 0.156863 0 0 0 0.05 0"/>
<feBlend mode="normal" in2="effect1_dropShadow_4000_2461" result="effect2_dropShadow_4000_2461"/>
<feBlend mode="normal" in="SourceGraphic" in2="effect2_dropShadow_4000_2461" result="shape"/>
</filter>
</defs>
</svg>
